<svg width="24" height="25" viewBox="0 0 24 25" fill="none" xmlns="http://www.w3.org/2000/svg">
<path d="M14.0378 21.0283V18.9151H17.2076C17.5069 18.9151 17.7581 18.8137 17.9609 18.6108C18.1638 18.4079 18.2649 18.1572 18.2642 17.8585V15.7453C18.2642 15.0761 18.4579 14.4686 18.8453 13.9226C19.2327 13.3767 19.7434 12.9893 20.3774 12.7604V12.3906C19.7434 12.1616 19.2327 11.7742 18.8453 11.2283C18.4579 10.6824 18.2642 10.0748 18.2642 9.40566V7.29245C18.2642 6.99308 18.1627 6.74232 17.9599 6.54015C17.757 6.33799 17.5062 6.23655 17.2076 6.23585H14.0378V4.12264H17.2076C18.0881 4.12264 18.8365 4.43082 19.4529 5.04717C20.0692 5.66352 20.3774 6.41195 20.3774 7.29245V9.40566C20.3774 9.70503 20.4788 9.95615 20.6817 10.159C20.8846 10.3619 21.1353 10.463 21.434 10.4623H22.4906V14.6887H21.434C21.1346 14.6887 20.8839 14.7901 20.6817 14.993C20.4795 15.1958 20.3781 15.4466 20.3774 15.7453V17.8585C20.3774 18.739 20.0692 19.4874 19.4529 20.1038C18.8365 20.7201 18.0881 21.0283 17.2076 21.0283H14.0378ZM6.64154 21.0283C5.76104 21.0283 5.01261 20.7201 4.39626 20.1038C3.7799 19.4874 3.47173 18.739 3.47173 17.8585V15.7453C3.47173 15.4459 3.37029 15.1951 3.16743 14.993C2.96456 14.7908 2.71379 14.6894 2.41512 14.6887H1.35852V10.4623H2.41512C2.7145 10.4623 2.96561 10.3608 3.16848 10.158C3.37135 9.95509 3.47243 9.70433 3.47173 9.40566V7.29245C3.47173 6.41195 3.7799 5.66352 4.39626 5.04717C5.01261 4.43082 5.76104 4.12264 6.64154 4.12264H9.81135V6.23585H6.64154C6.34217 6.23585 6.0914 6.33728 5.88924 6.54015C5.68707 6.74302 5.58564 6.99379 5.58494 7.29245V9.40566C5.58494 10.0748 5.39122 10.6824 5.0038 11.2283C4.61638 11.7742 4.10569 12.1616 3.47173 12.3906V12.7604C4.10569 12.9893 4.61638 13.3767 5.0038 13.9226C5.39122 14.4686 5.58494 15.0761 5.58494 15.7453V17.8585C5.58494 18.1579 5.68637 18.409 5.88924 18.6118C6.0921 18.8147 6.34287 18.9158 6.64154 18.9151H9.81135V21.0283H6.64154Z" fill="white"/>
</svg>
