<svg width="25" height="25" viewBox="0 0 25 25" fill="none" xmlns="http://www.w3.org/2000/svg">
<path d="M14.7704 0H3.52439C1.57793 0 0 1.59945 0 3.57247V14.9719C0 16.945 1.57793 18.5444 3.52439 18.5444H14.7704C16.7169 18.5444 18.2948 16.945 18.2948 14.9719V3.57247C18.2948 1.59945 16.7169 0 14.7704 0Z" fill="url(#paint0_linear_87_2005)"/>
<g filter="url(#filter0_b_87_2005)">
<path d="M20.4756 5.45581H9.22952C7.28306 5.45581 5.70514 7.05526 5.70514 9.02828V20.4277C5.70514 22.4008 7.28306 24.0002 9.22952 24.0002H20.4756C22.422 24.0002 24 22.4008 24 20.4277V9.02828C24 7.05526 22.422 5.45581 20.4756 5.45581Z" fill="url(#paint1_linear_87_2005)"/>
<path d="M20.4756 5.15581H9.22952C7.11355 5.15581 5.40514 6.89342 5.40514 9.02828V20.4277C5.40514 22.5626 7.11355 24.3002 9.22952 24.3002H20.4756C22.5916 24.3002 24.3 22.5626 24.3 20.4277V9.02828C24.3 6.89342 22.5916 5.15581 20.4756 5.15581Z" stroke="url(#paint2_linear_87_2005)" stroke-width="0.6"/>
</g>
<defs>
<filter id="filter0_b_87_2005" x="-0.894836" y="-1.14417" width="31.4948" height="31.7444" filterUnits="userSpaceOnUse" color-interpolation-filters="sRGB">
<feFlood flood-opacity="0" result="BackgroundImageFix"/>
<feGaussianBlur in="BackgroundImageFix" stdDeviation="3"/>
<feComposite in2="SourceAlpha" operator="in" result="effect1_backgroundBlur_87_2005"/>
<feBlend mode="normal" in="SourceGraphic" in2="effect1_backgroundBlur_87_2005" result="shape"/>
</filter>
<linearGradient id="paint0_linear_87_2005" x1="1.5357" y1="9.81762" x2="18.2948" y2="9.81762" gradientUnits="userSpaceOnUse">
<stop stop-color="#E964FF"/>
<stop offset="1" stop-color="#8F37FF"/>
</linearGradient>
<linearGradient id="paint1_linear_87_2005" x1="6.73799" y1="22.9533" x2="23.187" y2="6.72563" gradientUnits="userSpaceOnUse">
<stop stop-color="white" stop-opacity="0.2"/>
<stop offset="1" stop-color="white" stop-opacity="0.49"/>
</linearGradient>
<linearGradient id="paint2_linear_87_2005" x1="6.99655" y1="6.91429" x2="22.5105" y2="23.2791" gradientUnits="userSpaceOnUse">
<stop stop-color="white"/>
<stop offset="1" stop-color="white" stop-opacity="0"/>
</linearGradient>
</defs>
</svg>
