<svg width="24" height="24" viewBox="0 0 24 24" fill="none" xmlns="http://www.w3.org/2000/svg">
<path d="M18.3641 16.9497C18.5516 17.1373 18.657 17.3916 18.657 17.6569C18.657 17.9221 18.5516 18.1764 18.3641 18.364C18.1765 18.5515 17.9222 18.6569 17.657 18.6569C17.3918 18.6569 17.1374 18.5515 16.9499 18.364L5.63615 7.05025C5.44862 6.86272 5.34326 6.60836 5.34326 6.34315C5.34326 6.07793 5.44862 5.82358 5.63615 5.63604C5.82369 5.4485 6.07805 5.34315 6.34326 5.34315C6.60848 5.34315 6.86283 5.4485 7.05037 5.63604L18.3641 16.9497Z" fill="white"/>
<path d="M16.9499 5.63604C17.1374 5.4485 17.3918 5.34315 17.657 5.34315C17.9222 5.34315 18.1765 5.4485 18.3641 5.63604C18.5516 5.82358 18.657 6.07793 18.657 6.34315C18.657 6.60836 18.5516 6.86272 18.3641 7.05025L7.05037 18.364C6.86283 18.5515 6.60848 18.6569 6.34326 18.6569C6.07804 18.6569 5.82369 18.5515 5.63615 18.364C5.44862 18.1764 5.34326 17.9221 5.34326 17.6569C5.34326 17.3916 5.44862 17.1373 5.63615 16.9497L16.9499 5.63604Z" fill="white"/>
</svg>
