<svg width="60" height="45" viewBox="0 0 60 45" fill="none" xmlns="http://www.w3.org/2000/svg">
<g clip-path="url(#clip0_87_1968)">
<path d="M60 1.64634C60 2.08298 59.8244 2.50173 59.5119 2.81048C59.1993 3.11923 58.7754 3.29268 58.3334 3.29268C57.8913 3.29268 57.4674 3.11923 57.1548 2.81048C56.8423 2.50173 56.6667 2.08298 56.6667 1.64634C56.6667 1.2097 56.8423 0.790951 57.1548 0.482202C57.4674 0.173453 57.8913 0 58.3334 0C58.7754 0 59.1993 0.173453 59.5119 0.482202C59.8244 0.790951 60 1.2097 60 1.64634Z" fill="white"/>
<path fill-rule="evenodd" clip-rule="evenodd" d="M15.2778 44.7739C6.84 44.7739 0 38.0173 0 29.6824V1.09753H5.55556V29.6824C5.55556 32.2295 6.57986 34.6722 8.40313 36.4732C10.2264 38.2743 12.6993 39.2861 15.2778 39.2861C20.7144 39.2861 25 35.1472 25 29.9085H30.5556V38.1402C30.5556 38.5041 30.7019 38.853 30.9624 39.1103C31.2228 39.3676 31.5761 39.5122 31.9444 39.5122C32.3128 39.5122 32.6661 39.3676 32.9265 39.1103C33.187 38.853 33.3333 38.5041 33.3333 38.1402V28.3994C32.3243 28.6028 31.282 28.582 30.2821 28.3385C29.2821 28.095 28.3495 27.6348 27.5518 26.9913C26.7542 26.3478 26.1114 25.5371 25.67 24.6179C25.2287 23.6988 24.9998 22.6941 25 21.6768V7.95729C25 6.13797 25.7316 4.39316 27.034 3.10671C28.3363 1.82026 30.1027 1.09753 31.9444 1.09753C33.7862 1.09753 35.5526 1.82026 36.8549 3.10671C38.1572 4.39316 38.8889 6.13797 38.8889 7.95729V38.1402C38.8889 38.5041 39.0352 38.853 39.2957 39.1103C39.5562 39.3676 39.9094 39.5122 40.2778 39.5122C40.6461 39.5122 40.9994 39.3676 41.2599 39.1103C41.5203 38.853 41.6667 38.5041 41.6667 38.1402V7.95729C41.6667 6.13797 42.3983 4.39316 43.7006 3.10671C45.003 1.82026 46.7693 1.09753 48.6111 1.09753C50.4529 1.09753 52.2192 1.82026 53.5216 3.10671C54.8239 4.39316 55.5556 6.13797 55.5556 7.95729V38.1402C55.5556 39.4142 55.1964 40.6629 54.5184 41.7466C53.8404 42.8303 52.8703 43.706 51.7168 44.2758C50.5633 44.8455 49.2719 45.0867 47.9875 44.9723C46.703 44.8579 45.4762 44.3924 44.4444 43.628C43.2435 44.5206 41.7807 45.0022 40.2778 45C38.7748 45.0022 37.3121 44.5206 36.1111 43.628C35.2753 44.2472 34.3089 44.6721 33.2838 44.8711C32.2587 45.0702 31.2013 45.0382 30.1905 44.7777C29.1796 44.5171 28.2413 44.0347 27.4453 43.3663C26.6494 42.6978 26.0163 41.8606 25.5933 40.917C22.8644 43.3284 19.2344 44.7739 15.2778 44.7739ZM48.6111 39.5122C47.8444 39.5122 47.2222 38.8975 47.2222 38.1402V7.95729C47.2222 7.59343 47.3686 7.24447 47.629 6.98717C47.8895 6.72988 48.2428 6.58534 48.6111 6.58534C48.9795 6.58534 49.3327 6.72988 49.5932 6.98717C49.8537 7.24447 50 7.59343 50 7.95729V38.1402C50 38.8975 49.3778 39.5122 48.6111 39.5122ZM33.3333 21.6768C33.3333 22.0407 33.187 22.3896 32.9265 22.6469C32.6661 22.9042 32.3128 23.0488 31.9444 23.0488C31.5761 23.0488 31.2228 22.9042 30.9624 22.6469C30.7019 22.3896 30.5556 22.0407 30.5556 21.6768V7.95729C30.5556 7.59343 30.7019 7.24447 30.9624 6.98717C31.2228 6.72988 31.5761 6.58534 31.9444 6.58534C32.3128 6.58534 32.6661 6.72988 32.9265 6.98717C33.187 7.24447 33.3333 7.59343 33.3333 7.95729V21.6768Z" fill="white"/>
<path fill-rule="evenodd" clip-rule="evenodd" d="M8.33331 29.9085C8.33331 31.7278 9.06496 33.4726 10.3673 34.7591C11.6696 36.0455 13.436 36.7683 15.2778 36.7683C17.1195 36.7683 18.8859 36.0455 20.1882 34.7591C21.4906 33.4726 22.2222 31.7278 22.2222 29.9085V7.95729C22.2222 6.13797 21.4906 4.39316 20.1882 3.10671C18.8859 1.82026 17.1195 1.09753 15.2778 1.09753C13.436 1.09753 11.6696 1.82026 10.3673 3.10671C9.06496 4.39316 8.33331 6.13797 8.33331 7.95729V29.9085ZM15.2778 31.2805C14.5111 31.2805 13.8889 30.6658 13.8889 29.9085V7.95729C13.8889 7.59343 14.0352 7.24446 14.2957 6.98717C14.5561 6.72988 14.9094 6.58534 15.2778 6.58534C15.6461 6.58534 15.9994 6.72988 16.2599 6.98717C16.5203 7.24446 16.6666 7.59343 16.6666 7.95729V29.9085C16.6666 30.6658 16.0444 31.2805 15.2778 31.2805Z" fill="white"/>
</g>
<defs>
<clipPath id="clip0_87_1968">
<rect width="60" height="45" fill="white"/>
</clipPath>
</defs>
</svg>
