<svg width="64" height="43" viewBox="0 0 64 43" fill="none" xmlns="http://www.w3.org/2000/svg">
<g clip-path="url(#clip0_87_1992)">
<path d="M59.9999 1.8125C59.9999 2.53737 60.5968 3.125 61.3333 3.125H62.6666C63.403 3.125 63.9999 2.53737 63.9999 1.8125C63.9999 1.08763 63.403 0.5 62.6666 0.5H61.3333C60.5968 0.5 59.9999 1.08763 59.9999 1.8125Z" fill="white"/>
<path d="M21.3333 42.5H27.8105L25.9248 40.6438C25.4247 40.1516 24.7465 39.875 24.0393 39.875H21.3333C11.024 39.875 2.66667 31.6482 2.66667 21.5C2.66667 11.3517 11.024 3.12501 21.3333 3.125H42.6667C52.976 3.125 61.3333 11.3517 61.3333 21.5C61.3333 31.6482 52.976 39.875 42.6667 39.875H34.6863C33.6254 39.875 32.608 39.4601 31.8578 38.7218L29.6487 36.5471C28.3985 35.3164 26.7027 34.625 24.9346 34.625H21.3333C13.9695 34.625 8 28.7488 8 21.5C8 14.2512 13.9695 8.375 21.3333 8.375H42.6667C50.0305 8.375 56 14.2512 56 21.5C56 28.7488 50.0305 34.625 42.6667 34.625H37.5425C36.4816 34.625 35.4642 34.2101 34.714 33.4718L32.5049 31.2971C31.2546 30.0664 29.5589 29.375 27.7908 29.375H21.3333C16.9151 29.375 13.3333 25.8492 13.3333 21.5C13.3333 17.1508 16.9151 13.625 21.3333 13.625H42.6667C47.0849 13.625 50.6667 17.1508 50.6667 21.5C50.6667 25.7962 47.1717 29.2889 42.8279 29.3734L42.8271 29.375H40.8758C39.8149 29.375 38.7975 28.9601 38.0474 28.2218L35.8382 26.0471C34.8124 25.0372 33.4866 24.3905 32.067 24.1909L32 24.125H21.3333C19.8606 24.125 18.6667 22.9497 18.6667 21.5C18.6667 20.0503 19.8606 18.875 21.3333 18.875H42.6667C44.1394 18.875 45.3333 20.0503 45.3333 21.5C45.3333 22.9497 44.1394 24.125 42.6667 24.125H37.3333L39.219 25.9812C39.719 26.4734 40.3973 26.75 41.1045 26.75H42.6667C45.6122 26.75 48 24.3995 48 21.5C48 18.6005 45.6122 16.25 42.6667 16.25H21.3333C18.3878 16.25 16 18.6005 16 21.5C16 24.3995 18.3878 26.75 21.3333 26.75H31.1242C32.1851 26.75 33.2025 27.1649 33.9526 27.9032L36.1618 30.0779C37.4121 31.3086 39.1077 32 40.8758 32H43.3333V31.9798C48.9138 31.6411 53.3333 27.0785 53.3333 21.5C53.3333 15.7011 48.5577 11 42.6667 11H21.3333C15.4423 11 10.6667 15.7011 10.6667 21.5C10.6667 27.299 15.4423 32 21.3333 32H27.7908C28.8517 32 29.8691 32.4149 30.6193 33.1532L32.8285 35.3279C34.0787 36.5586 35.7744 37.25 37.5425 37.25H42.6667C51.5033 37.25 58.6667 30.1985 58.6667 21.5C58.6667 12.8015 51.5033 5.75 42.6667 5.75H21.3333C12.4967 5.75 5.33333 12.8015 5.33333 21.5C5.33333 30.1985 12.4967 37.25 21.3333 37.25H24.9346C25.9955 37.25 27.0129 37.6649 27.7631 38.4032L29.9723 40.5779C31.2225 41.8086 32.9182 42.5 34.6863 42.5H42.6667C54.4487 42.5 64 33.098 64 21.5C64 9.90201 54.4487 0.499999 42.6667 0.5L21.3333 0.500004C9.55125 0.500005 -1.03002e-06 9.90203 0 21.5C1.03002e-06 33.098 9.55126 42.5 21.3333 42.5Z" fill="white"/>
</g>
<defs>
<clipPath id="clip0_87_1992">
<rect width="64" height="42" fill="white" transform="translate(0 0.5)"/>
</clipPath>
</defs>
</svg>
