<svg width="24" height="24" viewBox="0 0 24 24" fill="none" xmlns="http://www.w3.org/2000/svg">
<g filter="url(#filter0_i_104_1111)">
<path d="M20.301 12.2323C21.1272 12.2323 21.8081 11.5591 21.6871 10.7418C21.5652 9.91878 21.3424 9.11191 21.0226 8.33972C20.5114 7.10561 19.7621 5.98428 18.8176 5.03973C17.8731 4.09518 16.7517 3.34593 15.5176 2.83474C14.7454 2.51489 13.9385 2.29217 13.1155 2.17025C12.2983 2.04919 11.625 2.73018 11.625 3.55632L11.625 10.7365C11.625 11.5626 12.2947 12.2323 13.1209 12.2323H20.301Z" fill="url(#paint0_linear_104_1111)"/>
</g>
<g filter="url(#filter1_i_104_1111)">
<path fill-rule="evenodd" clip-rule="evenodd" d="M21.3911 10.7857C21.2728 9.98683 21.0566 9.20369 20.7462 8.45421C20.25 7.2564 19.5228 6.16804 18.6061 5.25128C17.6893 4.33451 16.6009 3.60729 15.4031 3.11114C14.6536 2.8007 13.8705 2.58453 13.0717 2.46619C12.4651 2.37634 11.9242 2.88125 11.9242 3.55632L11.9242 10.7365C11.9242 11.3974 12.46 11.9332 13.1209 11.9332H20.301C20.9761 11.9332 21.481 11.3923 21.3911 10.7857ZM21.6871 10.7418C21.8081 11.5591 21.1272 12.2323 20.301 12.2323H13.1209C12.2947 12.2323 11.625 11.5626 11.625 10.7365L11.625 3.55632C11.625 2.73018 12.2983 2.04919 13.1155 2.17025C13.9386 2.29217 14.7454 2.51489 15.5176 2.83474C16.7517 3.34593 17.8731 4.09518 18.8176 5.03973C19.7621 5.98428 20.5114 7.10562 21.0226 8.33972C21.3424 9.11191 21.5652 9.91878 21.6871 10.7418Z" fill="white" fill-opacity="0.1"/>
</g>
<g filter="url(#filter2_i_104_1111)">
<path fill-rule="evenodd" clip-rule="evenodd" d="M21.6871 10.7418C21.8081 11.5591 21.1272 12.2323 20.301 12.2323H19.2679C18.7696 8.3005 15.5936 5.2038 11.625 4.82729L11.625 3.55632C11.625 2.73018 12.2983 2.04919 13.1155 2.17025C13.9385 2.29217 14.7454 2.51489 15.5176 2.83474C16.7517 3.34593 17.8731 4.09518 18.8176 5.03973C19.7621 5.98428 20.5114 7.10561 21.0226 8.33972C21.3424 9.11191 21.5652 9.91878 21.6871 10.7418Z" fill="url(#paint1_linear_104_1111)"/>
</g>
<path d="M19.3028 13.3077C19.3028 18.0167 15.4854 21.8341 10.7764 21.8341C6.06741 21.8341 2.25 18.0167 2.25 13.3077C2.25 8.59866 6.06741 4.78125 10.7764 4.78125C15.4854 4.78125 19.3028 8.59866 19.3028 13.3077Z" fill="#8324FF" fill-opacity="0.09"/>
<path d="M19.3028 13.3077C19.3028 18.0167 15.4854 21.8341 10.7764 21.8341C6.06741 21.8341 2.25 18.0167 2.25 13.3077C2.25 8.59866 6.06741 4.78125 10.7764 4.78125C15.4854 4.78125 19.3028 8.59866 19.3028 13.3077Z" fill="url(#paint2_linear_104_1111)"/>
<g filter="url(#filter3_bi_104_1111)">
<path fill-rule="evenodd" clip-rule="evenodd" d="M10.7764 21.3853C15.2376 21.3853 18.8541 17.7688 18.8541 13.3077C18.8541 8.8465 15.2376 5.23001 10.7764 5.23001C6.31525 5.23001 2.69876 8.8465 2.69876 13.3077C2.69876 17.7688 6.31525 21.3853 10.7764 21.3853ZM10.7764 21.8341C15.4854 21.8341 19.3028 18.0167 19.3028 13.3077C19.3028 8.59866 15.4854 4.78125 10.7764 4.78125C6.06741 4.78125 2.25 8.59866 2.25 13.3077C2.25 18.0167 6.06741 21.8341 10.7764 21.8341Z" fill="url(#paint3_linear_104_1111)" fill-opacity="0.5"/>
</g>
<defs>
<filter id="filter0_i_104_1111" x="11.625" y="2.15625" width="10.0761" height="10.0762" filterUnits="userSpaceOnUse" color-interpolation-filters="sRGB">
<feFlood flood-opacity="0" result="BackgroundImageFix"/>
<feBlend mode="normal" in="SourceGraphic" in2="BackgroundImageFix" result="shape"/>
<feColorMatrix in="SourceAlpha" type="matrix" values="0 0 0 0 0 0 0 0 0 0 0 0 0 0 0 0 0 0 127 0" result="hardAlpha"/>
<feOffset/>
<feGaussianBlur stdDeviation="1.43603"/>
<feComposite in2="hardAlpha" operator="arithmetic" k2="-1" k3="1"/>
<feColorMatrix type="matrix" values="0 0 0 0 0 0 0 0 0 0 0 0 0 0 0 0 0 0 0.25 0"/>
<feBlend mode="multiply" in2="shape" result="effect1_innerShadow_104_1111"/>
</filter>
<filter id="filter1_i_104_1111" x="11.625" y="2.15625" width="10.0761" height="10.0762" filterUnits="userSpaceOnUse" color-interpolation-filters="sRGB">
<feFlood flood-opacity="0" result="BackgroundImageFix"/>
<feBlend mode="normal" in="SourceGraphic" in2="BackgroundImageFix" result="shape"/>
<feColorMatrix in="SourceAlpha" type="matrix" values="0 0 0 0 0 0 0 0 0 0 0 0 0 0 0 0 0 0 127 0" result="hardAlpha"/>
<feOffset/>
<feGaussianBlur stdDeviation="1.43603"/>
<feComposite in2="hardAlpha" operator="arithmetic" k2="-1" k3="1"/>
<feColorMatrix type="matrix" values="0 0 0 0 0 0 0 0 0 0 0 0 0 0 0 0 0 0 0.25 0"/>
<feBlend mode="multiply" in2="shape" result="effect1_innerShadow_104_1111"/>
</filter>
<filter id="filter2_i_104_1111" x="11.625" y="1.14163" width="10.5834" height="11.0908" filterUnits="userSpaceOnUse" color-interpolation-filters="sRGB">
<feFlood flood-opacity="0" result="BackgroundImageFix"/>
<feBlend mode="normal" in="SourceGraphic" in2="BackgroundImageFix" result="shape"/>
<feColorMatrix in="SourceAlpha" type="matrix" values="0 0 0 0 0 0 0 0 0 0 0 0 0 0 0 0 0 0 127 0" result="hardAlpha"/>
<feOffset dx="0.507309" dy="-1.01462"/>
<feGaussianBlur stdDeviation="1.45851"/>
<feComposite in2="hardAlpha" operator="arithmetic" k2="-1" k3="1"/>
<feColorMatrix type="matrix" values="0 0 0 0 0 0 0 0 0 0 0 0 0 0 0 0 0 0 0.25 0"/>
<feBlend mode="multiply" in2="shape" result="effect1_innerShadow_104_1111"/>
</filter>
<filter id="filter3_bi_104_1111" x="-1.10074" y="1.43051" width="23.7543" height="23.7542" filterUnits="userSpaceOnUse" color-interpolation-filters="sRGB">
<feFlood flood-opacity="0" result="BackgroundImageFix"/>
<feGaussianBlur in="BackgroundImageFix" stdDeviation="1.67537"/>
<feComposite in2="SourceAlpha" operator="in" result="effect1_backgroundBlur_104_1111"/>
<feBlend mode="normal" in="SourceGraphic" in2="effect1_backgroundBlur_104_1111" result="shape"/>
<feColorMatrix in="SourceAlpha" type="matrix" values="0 0 0 0 0 0 0 0 0 0 0 0 0 0 0 0 0 0 127 0" result="hardAlpha"/>
<feOffset/>
<feGaussianBlur stdDeviation="1.43603"/>
<feComposite in2="hardAlpha" operator="arithmetic" k2="-1" k3="1"/>
<feColorMatrix type="matrix" values="0 0 0 0 0.858333 0 0 0 0 0.95841 0 0 0 0 1 0 0 0 1 0"/>
<feBlend mode="normal" in2="shape" result="effect2_innerShadow_104_1111"/>
</filter>
<linearGradient id="paint0_linear_104_1111" x1="12.4708" y1="7.49064" x2="21.7011" y2="7.49064" gradientUnits="userSpaceOnUse">
<stop stop-color="#E964FF"/>
<stop offset="1" stop-color="#8F37FF"/>
</linearGradient>
<linearGradient id="paint1_linear_104_1111" x1="12.4708" y1="7.49064" x2="21.7011" y2="7.49064" gradientUnits="userSpaceOnUse">
<stop stop-color="#E964FF"/>
<stop offset="1" stop-color="#8F37FF"/>
</linearGradient>
<linearGradient id="paint2_linear_104_1111" x1="6.18527" y1="4.78125" x2="14.7117" y2="23.1459" gradientUnits="userSpaceOnUse">
<stop stop-color="#F6EFFF"/>
<stop offset="1" stop-color="white" stop-opacity="0"/>
</linearGradient>
<linearGradient id="paint3_linear_104_1111" x1="6.51321" y1="5.76507" x2="14.4931" y2="21.2875" gradientUnits="userSpaceOnUse">
<stop stop-color="white" stop-opacity="0.32"/>
<stop offset="1" stop-color="#8324FF" stop-opacity="0"/>
</linearGradient>
</defs>
</svg>
