<svg width="117" height="25" viewBox="0 0 117 25" fill="none" xmlns="http://www.w3.org/2000/svg">
<g clip-path="url(#clip0_87_1955)">
<path fill-rule="evenodd" clip-rule="evenodd" d="M14.8021 7.67785C13.8496 7.04059 12.7297 6.70045 11.5842 6.70045V0.900879C13.8753 0.900879 16.115 1.58116 18.02 2.85569C19.925 4.13021 21.4097 5.94175 22.2865 8.0612C23.1633 10.1807 23.3927 12.5129 22.9457 14.7629C22.4987 17.0129 21.3955 19.0797 19.7754 20.7018C18.1553 22.324 16.0912 23.4287 13.8441 23.8763C11.597 24.3238 9.26779 24.0941 7.15107 23.2162C5.03436 22.3383 3.22516 20.8516 1.95228 18.9442C0.679399 17.0367 0 14.7941 0 12.5H5.79208C5.79208 13.6471 6.13178 14.7683 6.76822 15.7221C7.40465 16.6758 8.30926 17.4192 9.36764 17.8581C10.426 18.2971 11.5906 18.4119 12.7141 18.1881C13.8377 17.9644 14.8697 17.412 15.6798 16.6009C16.4898 15.7898 17.0415 14.7565 17.2649 13.6315C17.4884 12.5065 17.3737 11.3403 16.9353 10.2806C16.4969 9.22088 15.7546 8.31511 14.8021 7.67785Z" fill="white"/>
<path fill-rule="evenodd" clip-rule="evenodd" d="M5.79208 0.900882C5.79208 1.66249 5.64226 2.41664 5.35118 3.12028C5.0601 3.82392 4.63346 4.46326 4.09562 5.0018C3.55778 5.54034 2.91926 5.96753 2.21653 6.25899C1.5138 6.55044 0.760624 6.70045 2.53178e-07 6.70045L0 12.5C1.52125 12.5 3.02761 12.2 4.43307 11.6171C5.83853 11.0342 7.11557 10.1798 8.19121 9.10269C9.26692 8.02565 10.1202 6.74696 10.7024 5.33968C11.2845 3.9324 11.5842 2.4241 11.5842 0.900879L5.79208 0.900882Z" fill="white"/>
<path d="M72.7595 9.28271H69.9492V18.2212H72.7595V9.28271Z" fill="white"/>
<path d="M70.2619 7.609C70.5556 7.90327 70.9228 8.05041 71.3636 8.05041C71.8044 8.05041 72.1658 7.90327 72.4473 7.609C72.7294 7.3025 72.8701 6.93463 72.8701 6.50549C72.8701 6.0641 72.7294 5.69624 72.4473 5.40198C72.1658 5.1077 71.8044 4.96057 71.3636 4.96057C70.9228 4.96057 70.5556 5.1077 70.2619 5.40198C69.9799 5.69624 69.8391 6.0641 69.8391 6.50549C69.8391 6.93463 69.9799 7.3025 70.2619 7.609Z" fill="white"/>
<path d="M29.6301 18.2212V5.23645H32.5139V15.6831H38.2632V18.2212H29.6301Z" fill="white"/>
<path fill-rule="evenodd" clip-rule="evenodd" d="M43.4565 18.4234C42.5381 18.4234 41.7054 18.2211 40.9584 17.8165C40.2237 17.3996 39.642 16.8356 39.2134 16.1244C38.7849 15.4133 38.5706 14.6163 38.5706 13.7335C38.5706 12.8507 38.7849 12.0599 39.2134 11.3609C39.642 10.662 40.2237 10.1103 40.9584 9.70569C41.6931 9.28876 42.5258 9.08032 43.4565 9.08032C44.3871 9.08032 45.2198 9.28267 45.9545 9.68725C46.6893 10.0919 47.271 10.6498 47.6995 11.3609C48.1281 12.0599 48.3424 12.8507 48.3424 13.7335C48.3424 14.6163 48.1281 15.4133 47.6995 16.1244C47.271 16.8356 46.6893 17.3996 45.9545 17.8165C45.2198 18.2211 44.3871 18.4234 43.4565 18.4234ZM43.4565 15.867C43.8606 15.867 44.2157 15.7811 44.5219 15.6095C44.828 15.4256 45.0606 15.1742 45.2198 14.8554C45.3912 14.5244 45.477 14.1504 45.477 13.7335C45.477 13.3166 45.3912 12.9549 45.2198 12.6484C45.0484 12.3296 44.8096 12.0844 44.5034 11.9127C44.2095 11.7288 43.8606 11.6368 43.4565 11.6368C43.0646 11.6368 42.7157 11.7288 42.4095 11.9127C42.1034 12.0844 41.8646 12.3296 41.6931 12.6484C41.5217 12.9672 41.436 13.335 41.436 13.7519C41.436 14.1565 41.5217 14.5244 41.6931 14.8554C41.8646 15.1742 42.1034 15.4256 42.4095 15.6095C42.7157 15.7811 43.0646 15.867 43.4565 15.867Z" fill="white"/>
<path fill-rule="evenodd" clip-rule="evenodd" d="M50.5682 21.7157C51.3151 22.0589 52.1785 22.2306 53.1581 22.2306C54.1132 22.2306 54.9643 22.0405 55.7113 21.6604C56.4583 21.2803 57.046 20.7532 57.4746 20.0788C57.9032 19.4044 58.1178 18.6074 58.1178 17.6878V9.28272H55.3622V9.88326C55.1573 9.71055 54.9246 9.56556 54.6643 9.44824C54.1867 9.21527 53.6418 9.09875 53.0295 9.09875C52.2091 9.09875 51.4805 9.29495 50.8437 9.6873C50.2069 10.0674 49.7049 10.5946 49.3375 11.269C48.9701 11.9311 48.7865 12.6791 48.7865 13.5129C48.7865 14.3344 48.9701 15.0823 49.3375 15.7567C49.7049 16.431 50.2069 16.9644 50.8437 17.3568C51.4805 17.7491 52.2091 17.9453 53.0295 17.9453C53.6295 17.9453 54.1745 17.8288 54.6643 17.5959C54.9015 17.483 55.1159 17.35 55.3072 17.1969V17.7614C55.3072 18.3867 55.1051 18.871 54.701 19.2144C54.3092 19.5577 53.7643 19.7293 53.0663 19.7293C52.503 19.7293 52.0193 19.6312 51.6152 19.435C51.2233 19.2389 50.8682 18.9507 50.5498 18.5706L48.8232 20.2995C49.2518 20.9125 49.8335 21.3846 50.5682 21.7157ZM54.5724 15.1865C54.2908 15.3582 53.9541 15.444 53.5622 15.444C53.1704 15.444 52.8275 15.3582 52.5336 15.1865C52.2519 15.0148 52.0315 14.7819 51.8723 14.4876C51.7131 14.1811 51.6335 13.8561 51.6335 13.5129C51.6335 13.145 51.7131 12.814 51.8723 12.5197C52.0315 12.2254 52.258 11.9925 52.5519 11.8208C52.8458 11.6491 53.1826 11.5633 53.5622 11.5633C53.9541 11.5633 54.2908 11.6491 54.5724 11.8208C54.8663 11.9925 55.0867 12.2254 55.2337 12.5197C55.3929 12.814 55.4725 13.145 55.4725 13.5129C55.4725 13.8807 55.3929 14.2117 55.2337 14.506C55.0867 14.788 54.8663 15.0148 54.5724 15.1865Z" fill="white"/>
<path fill-rule="evenodd" clip-rule="evenodd" d="M64.032 18.4234C63.1133 18.4234 62.2804 18.2211 61.5338 17.8165C60.7988 17.3996 60.2173 16.8356 59.7887 16.1244C59.3601 15.4133 59.1458 14.6163 59.1458 13.7335C59.1458 12.8507 59.3601 12.0599 59.7887 11.3609C60.2173 10.662 60.7988 10.1103 61.5338 9.70569C62.2683 9.28876 63.1012 9.08032 64.032 9.08032C64.9622 9.08032 65.7951 9.28267 66.5295 9.68725C67.2645 10.0919 67.846 10.6498 68.2746 11.3609C68.7033 12.0599 68.9176 12.8507 68.9176 13.7335C68.9176 14.6163 68.7033 15.4133 68.2746 16.1244C67.846 16.8356 67.2645 17.3996 66.5295 17.8165C65.7951 18.2211 64.9622 18.4234 64.032 18.4234ZM64.032 15.867C64.4357 15.867 64.7907 15.7811 65.0971 15.6095C65.4029 15.4256 65.6358 15.1742 65.7951 14.8554C65.9665 14.5244 66.0522 14.1504 66.0522 13.7335C66.0522 13.3166 65.9665 12.9549 65.7951 12.6484C65.6236 12.3296 65.385 12.0844 65.0786 11.9127C64.7849 11.7288 64.4357 11.6368 64.032 11.6368C63.6398 11.6368 63.2906 11.7288 62.9847 11.9127C62.6783 12.0844 62.4397 12.3296 62.2683 12.6484C62.0968 12.9672 62.0111 13.335 62.0111 13.7519C62.0111 14.1565 62.0968 14.5244 62.2683 14.8554C62.4397 15.1742 62.6783 15.4256 62.9847 15.6095C63.2906 15.7811 63.6398 15.867 64.032 15.867Z" fill="white"/>
<path fill-rule="evenodd" clip-rule="evenodd" d="M79.5143 18.4051C78.9148 18.4051 78.3634 18.2886 77.8612 18.0557C77.5971 17.9331 77.3584 17.7867 77.1453 17.6165V21.9915H74.3715V9.28272H77.1818V9.89962C77.3857 9.73265 77.6121 9.5883 77.8612 9.46662C78.3634 9.22136 78.9148 9.09875 79.5143 9.09875C80.3593 9.09875 81.1065 9.3011 81.7552 9.70574C82.4167 10.1103 82.931 10.6621 83.2982 11.361C83.6782 12.0599 83.8676 12.8569 83.8676 13.7519C83.8676 14.647 83.6782 15.444 83.2982 16.1429C82.931 16.8418 82.4167 17.3935 81.7552 17.7982C81.1065 18.2028 80.3593 18.4051 79.5143 18.4051ZM79.0005 15.867C79.4042 15.867 79.7535 15.775 80.0471 15.5911C80.3535 15.4072 80.5922 15.1558 80.7636 14.8371C80.9351 14.5183 81.0208 14.1566 81.0208 13.7519C81.0208 13.3351 80.9351 12.9672 80.7636 12.6484C80.5922 12.3296 80.3535 12.0844 80.0471 11.9128C79.7535 11.7288 79.4106 11.6369 79.0185 11.6369C78.6269 11.6369 78.2776 11.7288 77.9718 11.9128C77.6776 12.0844 77.4453 12.3296 77.2739 12.6484C77.1024 12.9672 77.0167 13.3351 77.0167 13.7519C77.0167 14.1566 77.0961 14.5183 77.2553 14.8371C77.4268 15.1558 77.6654 15.4072 77.9718 15.5911C78.2776 15.775 78.6205 15.867 79.0005 15.867Z" fill="white"/>
<path d="M86.6182 18.2395C87.1326 18.3744 87.6527 18.4418 88.1792 18.4418C89.2936 18.4418 90.1751 18.1843 90.8244 17.6693C91.4853 17.1544 91.816 16.4616 91.816 15.5911C91.816 15.0271 91.7124 14.5734 91.5038 14.2301C91.2959 13.8745 91.0266 13.5925 90.6958 13.384C90.3651 13.1756 90.0159 13.01 89.6486 12.8874C89.2814 12.7648 88.9321 12.6606 88.602 12.5748C88.2713 12.4889 88.0019 12.3909 87.7934 12.2805C87.5855 12.1701 87.4812 12.023 87.4812 11.8391C87.4812 11.6674 87.5612 11.5387 87.7199 11.4528C87.8792 11.3548 88.1178 11.3058 88.4364 11.3058C88.7671 11.3058 89.1036 11.3732 89.4465 11.5081C89.8015 11.6429 90.1201 11.8759 90.4016 12.207L91.9996 10.5885C91.5959 10.0735 91.0694 9.68722 90.4201 9.42978C89.7836 9.16004 89.0856 9.02515 88.3263 9.02515C87.604 9.02515 86.9733 9.14775 86.4346 9.39296C85.8954 9.63822 85.4789 9.97541 85.1853 10.4045C84.8916 10.8214 84.7445 11.318 84.7445 11.8943C84.7445 12.4338 84.8487 12.8813 85.0567 13.2369C85.2646 13.5802 85.5345 13.85 85.8647 14.0461C86.1954 14.2423 86.5447 14.3956 86.9119 14.5059C87.2791 14.6163 87.6284 14.7205 87.9591 14.8186C88.2892 14.9045 88.5591 15.0087 88.7671 15.1313C88.9878 15.2416 89.0978 15.4072 89.0978 15.6278C89.0978 15.7995 89.0057 15.9343 88.8221 16.0325C88.6507 16.1305 88.3999 16.1796 88.0691 16.1796C87.5913 16.1796 87.1505 16.0938 86.7468 15.9221C86.3425 15.7382 85.9933 15.4869 85.6996 15.168L84.1016 16.7865C84.408 17.1176 84.7752 17.4119 85.2038 17.6693C85.6446 17.9146 86.116 18.1046 86.6182 18.2395Z" fill="white"/>
<path d="M96.9408 18.4235C96.1207 18.4235 95.392 18.258 94.7555 17.9269C94.1305 17.5836 93.6411 17.1176 93.286 16.5291C92.9304 15.9283 92.7532 15.2417 92.7532 14.4692V9.28271H95.5635V14.4324C95.5635 14.7389 95.6121 15.0026 95.7106 15.2233C95.8207 15.444 95.9799 15.6157 96.1879 15.7383C96.3964 15.8609 96.6472 15.9222 96.9408 15.9222C97.3573 15.9222 97.688 15.7934 97.933 15.5359C98.178 15.2662 98.3002 14.8984 98.3002 14.4324V9.28271H101.111V14.4508C101.111 15.2356 100.933 15.9283 100.578 16.5291C100.223 17.1176 99.7332 17.5836 99.1082 17.9269C98.4839 18.258 97.7616 18.4235 96.9408 18.4235Z" fill="white"/>
<path d="M105.318 9.28272H102.508V18.2212H105.318V12.9979C105.318 12.6914 105.379 12.4339 105.502 12.2254C105.637 12.017 105.814 11.8576 106.034 11.7472C106.255 11.6246 106.506 11.5633 106.787 11.5633C107.192 11.5633 107.528 11.692 107.798 11.9495C108.08 12.1947 108.22 12.5442 108.22 12.9979V18.2212H111.031V12.9979C111.031 12.6914 111.092 12.4339 111.214 12.2254C111.349 12.017 111.527 11.8576 111.747 11.7472C111.967 11.6246 112.219 11.5633 112.5 11.5633C112.904 11.5633 113.241 11.692 113.51 11.9495C113.792 12.1947 113.933 12.5442 113.933 12.9979V18.2212H116.743V12.6852C116.743 11.9373 116.584 11.2997 116.266 10.7725C115.959 10.2329 115.537 9.82219 114.998 9.54022C114.472 9.24589 113.865 9.09875 113.18 9.09875C112.482 9.09875 111.851 9.25204 111.288 9.5586C110.922 9.75387 110.602 10.0059 110.328 10.3147C110.073 9.99171 109.762 9.72743 109.396 9.52178C108.906 9.2398 108.349 9.09875 107.725 9.09875C107.063 9.09875 106.469 9.2398 105.943 9.52178C105.714 9.6391 105.506 9.77962 105.318 9.94335V9.28272Z" fill="white"/>
</g>
<defs>
<clipPath id="clip0_87_1955">
<rect width="117" height="23.1983" fill="white" transform="translate(0 0.900879)"/>
</clipPath>
</defs>
</svg>
