<svg width="24" height="25" viewBox="0 0 24 25" fill="none" xmlns="http://www.w3.org/2000/svg">
<path d="M11.1667 13.9445L5.14615 18.3915C4.77027 18.6688 4.54926 19.1083 4.54926 19.577V23.4871C4.54926 24.6921 5.91243 25.3862 6.87875 24.6727L12.033 20.8647L17.1872 24.6727C18.1536 25.3862 19.5167 24.6921 19.5167 23.4871V19.577C19.5167 19.1083 19.2957 18.6688 18.9198 18.3915L12.8993 13.9445C12.3831 13.5634 11.6813 13.5634 11.1667 13.9445Z" fill="url(#paint0_linear_98_2107)"/>
<g filter="url(#filter0_b_98_2107)">
<path d="M11.9566 18.2399C16.7224 18.2399 20.5858 14.3764 20.5858 9.61066C20.5858 4.84488 16.7224 0.981445 11.9566 0.981445C7.19082 0.981445 3.32739 4.84488 3.32739 9.61066C3.32739 14.3764 7.19082 18.2399 11.9566 18.2399Z" fill="url(#paint1_linear_98_2107)"/>
<path d="M20.4785 9.61066C20.4785 14.3172 16.6631 18.1326 11.9566 18.1326C7.25008 18.1326 3.43469 14.3172 3.43469 9.61066C3.43469 4.90413 7.25008 1.08874 11.9566 1.08874C16.6631 1.08874 20.4785 4.90413 20.4785 9.61066Z" stroke="url(#paint2_linear_98_2107)" stroke-width="0.214592"/>
</g>
<defs>
<filter id="filter0_b_98_2107" x="1.39606" y="-0.949886" width="21.1211" height="21.121" filterUnits="userSpaceOnUse" color-interpolation-filters="sRGB">
<feFlood flood-opacity="0" result="BackgroundImageFix"/>
<feGaussianBlur in="BackgroundImageFix" stdDeviation="0.965666"/>
<feComposite in2="SourceAlpha" operator="in" result="effect1_backgroundBlur_98_2107"/>
<feBlend mode="normal" in="SourceGraphic" in2="effect1_backgroundBlur_98_2107" result="shape"/>
</filter>
<linearGradient id="paint0_linear_98_2107" x1="5.80565" y1="19.6421" x2="19.5167" y2="19.6421" gradientUnits="userSpaceOnUse">
<stop stop-color="#E964FF"/>
<stop offset="1" stop-color="#8F37FF"/>
</linearGradient>
<linearGradient id="paint1_linear_98_2107" x1="4.30173" y1="17.2655" x2="19.6115" y2="1.95578" gradientUnits="userSpaceOnUse">
<stop stop-color="white" stop-opacity="0.2"/>
<stop offset="1" stop-color="white" stop-opacity="0.49"/>
</linearGradient>
<linearGradient id="paint2_linear_98_2107" x1="4.54564" y1="2.33879" x2="18.9721" y2="17.764" gradientUnits="userSpaceOnUse">
<stop stop-color="white"/>
<stop offset="1" stop-color="white" stop-opacity="0"/>
</linearGradient>
</defs>
</svg>
