<svg width="24" height="24" viewBox="0 0 24 24" fill="none" xmlns="http://www.w3.org/2000/svg">
<g filter="url(#filter0_i_98_2108)">
<path fill-rule="evenodd" clip-rule="evenodd" d="M1.4612 14.5957C1.4612 11.0628 4.32522 8.19873 7.85816 8.19873C11.3911 8.19873 14.2551 11.0628 14.2551 14.5957C14.2551 18.1286 11.3911 20.9927 7.85816 20.9927C7.85672 20.9927 7.85528 20.9927 7.85384 20.9927H2.839C2.07806 20.9927 1.46119 20.3758 1.46119 19.6149L1.4612 14.5957Z" fill="url(#paint0_linear_98_2108)"/>
</g>
<g filter="url(#filter1_i_98_2108)">
<path fill-rule="evenodd" clip-rule="evenodd" d="M1.76738 14.5957C1.76738 11.2318 4.49431 8.50491 7.85816 8.50491C11.222 8.50491 13.9489 11.2318 13.9489 14.5957C13.9489 17.9595 11.222 20.6865 7.85816 20.6865L2.839 20.6865C2.24716 20.6865 1.76737 20.2067 1.76737 19.6149L1.76738 14.5957ZM7.85816 8.19873C4.32522 8.19873 1.4612 11.0628 1.4612 14.5957L1.46119 19.6149C1.46119 20.3758 2.07806 20.9927 2.839 20.9927L7.85816 20.9927C11.3911 20.9927 14.2551 18.1286 14.2551 14.5957C14.2551 11.0628 11.3911 8.19873 7.85816 8.19873Z" fill="white" fill-opacity="0.1"/>
</g>
<g filter="url(#filter2_b_98_2108)">
<path fill-rule="evenodd" clip-rule="evenodd" d="M14.8315 18.4333C14.8289 18.4333 14.8263 18.4333 14.8237 18.4333C10.5842 18.4333 7.14734 14.9965 7.14734 10.7569C7.14734 6.51739 10.5842 3.08057 14.8237 3.08057C19.0632 3.08057 22.5001 6.51739 22.5001 10.7569V16.7493C22.5001 17.6793 21.7461 18.4333 20.8161 18.4333H14.8315Z" fill="#8F37FF" fill-opacity="0.02"/>
<path fill-rule="evenodd" clip-rule="evenodd" d="M14.8315 18.4333C14.8289 18.4333 14.8263 18.4333 14.8237 18.4333C10.5842 18.4333 7.14734 14.9965 7.14734 10.7569C7.14734 6.51739 10.5842 3.08057 14.8237 3.08057C19.0632 3.08057 22.5001 6.51739 22.5001 10.7569V16.7493C22.5001 17.6793 21.7461 18.4333 20.8161 18.4333H14.8315Z" fill="url(#paint1_linear_98_2108)"/>
</g>
<g filter="url(#filter3_b_98_2108)">
<path fill-rule="evenodd" clip-rule="evenodd" d="M20.8161 17.974C21.4925 17.974 22.0408 17.4257 22.0408 16.7493V10.7569C22.0408 6.77104 18.8096 3.53984 14.8237 3.53984C10.8378 3.53984 7.60661 6.77104 7.60661 10.7569C7.60661 14.7428 10.8378 17.974 14.8237 17.974L20.8161 17.974ZM20.8161 18.4333C21.7461 18.4333 22.5001 17.6793 22.5001 16.7493V10.7569C22.5001 6.51739 19.0632 3.08057 14.8237 3.08057C10.5842 3.08057 7.14734 6.51739 7.14734 10.7569C7.14734 14.9965 10.5842 18.4333 14.8237 18.4333L20.8161 18.4333Z" fill="url(#paint2_linear_98_2108)" fill-opacity="0.5"/>
</g>
<g filter="url(#filter4_i_98_2108)">
<path fill-rule="evenodd" clip-rule="evenodd" d="M13.1143 18.2429C9.69756 17.4658 7.14737 14.4095 7.14737 10.7575C7.14737 9.86251 7.30055 9.00327 7.58211 8.20459C4.17722 8.34915 1.46118 11.1552 1.46118 14.5957L1.46118 19.6149C1.46118 20.3758 2.07805 20.9927 2.83899 20.9927H7.85383L7.85815 20.9927C10.0356 20.9927 11.9589 19.9048 13.1143 18.2429Z" fill="url(#paint3_linear_98_2108)"/>
</g>
<defs>
<filter id="filter0_i_98_2108" x="1.46118" y="8.19873" width="12.7939" height="12.7939" filterUnits="userSpaceOnUse" color-interpolation-filters="sRGB">
<feFlood flood-opacity="0" result="BackgroundImageFix"/>
<feBlend mode="normal" in="SourceGraphic" in2="BackgroundImageFix" result="shape"/>
<feColorMatrix in="SourceAlpha" type="matrix" values="0 0 0 0 0 0 0 0 0 0 0 0 0 0 0 0 0 0 127 0" result="hardAlpha"/>
<feOffset/>
<feGaussianBlur stdDeviation="1.46966"/>
<feComposite in2="hardAlpha" operator="arithmetic" k2="-1" k3="1"/>
<feColorMatrix type="matrix" values="0 0 0 0 0 0 0 0 0 0 0 0 0 0 0 0 0 0 0.25 0"/>
<feBlend mode="multiply" in2="shape" result="effect1_innerShadow_98_2108"/>
</filter>
<filter id="filter1_i_98_2108" x="1.46118" y="8.19873" width="12.7939" height="12.7939" filterUnits="userSpaceOnUse" color-interpolation-filters="sRGB">
<feFlood flood-opacity="0" result="BackgroundImageFix"/>
<feBlend mode="normal" in="SourceGraphic" in2="BackgroundImageFix" result="shape"/>
<feColorMatrix in="SourceAlpha" type="matrix" values="0 0 0 0 0 0 0 0 0 0 0 0 0 0 0 0 0 0 127 0" result="hardAlpha"/>
<feOffset/>
<feGaussianBlur stdDeviation="1.46966"/>
<feComposite in2="hardAlpha" operator="arithmetic" k2="-1" k3="1"/>
<feColorMatrix type="matrix" values="0 0 0 0 0 0 0 0 0 0 0 0 0 0 0 0 0 0 0.25 0"/>
<feBlend mode="multiply" in2="shape" result="effect1_innerShadow_98_2108"/>
</filter>
<filter id="filter2_b_98_2108" x="3.71813" y="-0.348645" width="22.2111" height="22.211" filterUnits="userSpaceOnUse" color-interpolation-filters="sRGB">
<feFlood flood-opacity="0" result="BackgroundImageFix"/>
<feGaussianBlur in="BackgroundImageFix" stdDeviation="1.71461"/>
<feComposite in2="SourceAlpha" operator="in" result="effect1_backgroundBlur_98_2108"/>
<feBlend mode="normal" in="SourceGraphic" in2="effect1_backgroundBlur_98_2108" result="shape"/>
</filter>
<filter id="filter3_b_98_2108" x="3.71813" y="-0.348645" width="22.2111" height="22.211" filterUnits="userSpaceOnUse" color-interpolation-filters="sRGB">
<feFlood flood-opacity="0" result="BackgroundImageFix"/>
<feGaussianBlur in="BackgroundImageFix" stdDeviation="1.71461"/>
<feComposite in2="SourceAlpha" operator="in" result="effect1_backgroundBlur_98_2108"/>
<feBlend mode="normal" in="SourceGraphic" in2="effect1_backgroundBlur_98_2108" result="shape"/>
</filter>
<filter id="filter4_i_98_2108" x="-0.875175" y="8.20459" width="13.9894" height="14.7351" filterUnits="userSpaceOnUse" color-interpolation-filters="sRGB">
<feFlood flood-opacity="0" result="BackgroundImageFix"/>
<feBlend mode="normal" in="SourceGraphic" in2="BackgroundImageFix" result="shape"/>
<feColorMatrix in="SourceAlpha" type="matrix" values="0 0 0 0 0 0 0 0 0 0 0 0 0 0 0 0 0 0 127 0" result="hardAlpha"/>
<feOffset dx="-2.33636" dy="1.94696"/>
<feGaussianBlur stdDeviation="2.79065"/>
<feComposite in2="hardAlpha" operator="arithmetic" k2="-1" k3="1"/>
<feColorMatrix type="matrix" values="0 0 0 0 0 0 0 0 0 0 0 0 0 0 0 0 0 0 0.25 0"/>
<feBlend mode="normal" in2="shape" result="effect1_innerShadow_98_2108"/>
</filter>
<linearGradient id="paint0_linear_98_2108" x1="13.1812" y1="14.972" x2="1.46119" y2="14.972" gradientUnits="userSpaceOnUse">
<stop stop-color="#E964FF"/>
<stop offset="1" stop-color="#8F37FF"/>
</linearGradient>
<linearGradient id="paint1_linear_98_2108" x1="10.6903" y1="3.08057" x2="18.3037" y2="21.704" gradientUnits="userSpaceOnUse">
<stop stop-color="#8F37FF" stop-opacity="0"/>
<stop offset="1" stop-color="white" stop-opacity="0.53"/>
</linearGradient>
<linearGradient id="paint2_linear_98_2108" x1="10.9855" y1="3.9663" x2="18.1698" y2="17.9412" gradientUnits="userSpaceOnUse">
<stop stop-color="white" stop-opacity="0.32"/>
<stop offset="1" stop-color="#8F37FF" stop-opacity="0"/>
</linearGradient>
<linearGradient id="paint3_linear_98_2108" x1="2.43936" y1="14.9747" x2="13.1143" y2="14.9747" gradientUnits="userSpaceOnUse">
<stop stop-color="#E964FF"/>
<stop offset="1" stop-color="#8F37FF"/>
</linearGradient>
</defs>
</svg>
