<svg width="84" height="33" viewBox="0 0 84 33" fill="none" xmlns="http://www.w3.org/2000/svg">
<path d="M17.1193 16.7299C17.1193 15.5476 17.8151 14.724 18.8783 14.724C19.9416 14.724 20.6373 15.5476 20.6373 16.7299C20.6373 17.899 19.9416 18.7358 18.8783 18.7358C17.8151 18.7358 17.1193 17.899 17.1193 16.7299Z" fill="white"/>
<path d="M26.1116 14.6709C25.1008 14.6709 24.4182 15.4679 24.4182 16.5573C24.4182 17.6599 25.1139 18.4835 26.1116 18.4835C27.2142 18.4835 27.9493 17.6466 27.9493 16.5573C27.9493 15.4812 27.2142 14.6709 26.1116 14.6709Z" fill="white"/>
<path d="M31.971 16.7299C31.971 15.5476 32.6668 14.724 33.73 14.724C34.7933 14.724 35.489 15.5476 35.489 16.7299C35.489 17.899 34.7933 18.7358 33.73 18.7358C32.6668 18.7358 31.971 17.899 31.971 16.7299Z" fill="white"/>
<path d="M42.6682 16.7432C42.6682 15.5609 43.3771 14.7373 44.4928 14.7373C45.6086 14.7373 46.2781 15.5742 46.2781 16.7432C46.2781 17.9122 45.6086 18.7358 44.4928 18.7358C43.3771 18.7358 42.6682 17.9255 42.6682 16.7432Z" fill="white"/>
<path fill-rule="evenodd" clip-rule="evenodd" d="M42 30.6277C64.3037 30.6277 82.3844 24.2071 82.3844 16.2869C82.3844 8.36672 64.3037 1.94617 42 1.94617C19.6962 1.94617 1.61539 8.36672 1.61539 16.2869C1.61539 24.2071 19.6962 30.6277 42 30.6277ZM14.5246 20.0244V10.1409H12.9231V20.0244H14.5246ZM15.5047 16.7299C15.5047 18.7491 16.8437 20.1838 18.8783 20.1838C20.913 20.1838 22.2519 18.7491 22.2519 16.7299C22.2519 14.7107 20.913 13.276 18.8783 13.276C16.8437 13.276 15.5047 14.7107 15.5047 16.7299ZM25.8359 19.8915C24.0113 19.8915 22.7905 18.51 22.7905 16.597C22.7905 14.6708 24.0375 13.2494 25.8884 13.2494C26.8467 13.2494 27.6605 13.6612 28.0543 14.352L28.1462 13.4619H29.5639V19.6923C29.5639 21.8576 28.225 23.2524 26.1247 23.2524C24.3394 23.2524 23.0399 22.1366 22.8299 20.4229H24.4445C24.5363 21.2864 25.219 21.7779 26.2166 21.7779C27.3324 21.7779 28.0018 21.0605 28.0018 19.9845V18.8687C27.5949 19.5063 26.781 19.8915 25.8359 19.8915ZM30.3564 16.7299C30.3564 18.7491 31.6954 20.1838 33.73 20.1838C35.7647 20.1838 37.1036 18.7491 37.1036 16.7299C37.1036 14.7107 35.7647 13.276 33.73 13.276C31.6954 13.276 30.3564 14.7107 30.3564 16.7299ZM39.795 11.1505C39.795 11.6952 39.3618 12.1203 38.8367 12.1203C38.2986 12.1203 37.8916 11.6952 37.8916 11.1505C37.8916 10.6191 38.2986 10.194 38.8367 10.194C39.3618 10.194 39.795 10.6191 39.795 11.1505ZM39.6375 13.4619V20.0244H38.036V13.4619H39.6375ZM41.0405 23.0665H42.6026V19.1211C43.0095 19.7985 43.889 20.197 44.8604 20.197C46.7769 20.197 47.9189 18.7092 47.8926 16.6634C47.8533 14.6044 46.685 13.2627 44.8473 13.2627C43.8628 13.2627 42.9701 13.7011 42.5763 14.4583L42.4844 13.4619H41.0405V23.0665ZM50.8984 20.197C49.3494 20.197 48.3518 19.3601 48.2993 18.0583H49.7564C49.7564 18.6295 50.1633 18.9616 50.8721 18.9616C51.4629 18.9616 51.9486 18.7225 51.9486 18.2044C51.9486 17.8324 51.686 17.6332 51.2659 17.5136L50.1371 17.2214C48.89 16.8893 48.4043 16.1852 48.4043 15.335C48.4043 14.0863 49.4413 13.2627 50.8328 13.2627C52.2373 13.2627 53.1956 14.0863 53.2481 15.3882H51.791C51.791 14.817 51.3972 14.4716 50.7934 14.4716C50.2158 14.4716 49.8614 14.7904 49.8614 15.2421C49.8614 15.6672 50.1895 15.8398 50.6752 15.9727L51.8173 16.2516C52.8806 16.5173 53.4581 17.155 53.4581 18.0982C53.4581 19.3734 52.4211 20.197 50.8984 20.197ZM56.7801 20.197C57.6593 20.197 58.4993 19.7852 58.8801 19.1742L58.9854 20.0244H60.4817V13.4619H58.8801V16.9026C58.8801 18.0849 58.4338 18.7491 57.3838 18.7491C56.5701 18.7491 56.0056 18.3506 56.0056 16.9956V13.4619H54.4039V17.5668C54.4039 19.1343 55.244 20.197 56.7801 20.197ZM63.4967 16.2516V20.0244H61.8951V13.4619H63.3651L63.4441 14.2059C63.8249 13.6214 64.5075 13.2627 65.2686 13.2627C66.3449 13.2627 67.0538 13.7409 67.4083 14.5114C67.7236 13.7409 68.4981 13.2627 69.4826 13.2627C71.0578 13.2627 71.8844 14.2192 71.8844 15.7336V20.0244H70.3354V16.1055C70.3354 15.1756 69.837 14.6841 69.0626 14.6841C68.301 14.6841 67.6973 15.1889 67.6973 16.2649V20.0244H66.1349V16.1055C66.1349 15.1756 65.6365 14.6841 64.8749 14.6841C64.1138 14.6841 63.4967 15.1889 63.4967 16.2516Z" fill="white"/>
</svg>
