<svg width="107" height="27" viewBox="0 0 107 27" fill="none" xmlns="http://www.w3.org/2000/svg">
<g clip-path="url(#clip0_87_1972)">
<path fill-rule="evenodd" clip-rule="evenodd" d="M6.34073 2.45935V26.118H0V2.45935H6.34073Z" fill="white"/>
<path fill-rule="evenodd" clip-rule="evenodd" d="M9.51111 2.45935H22.9852C27.3626 2.45935 30.9111 5.99012 30.9111 10.3456C30.9111 14.701 27.3626 18.2318 22.9852 18.2318H15.8518V26.118H9.51111V2.45935ZM15.8518 11.9228H22.9852C23.8607 11.9228 24.5704 11.2166 24.5704 10.3456C24.5704 9.47448 23.8607 8.76831 22.9852 8.76831H15.8518V11.9228Z" fill="white"/>
<path fill-rule="evenodd" clip-rule="evenodd" d="M54.6889 2.45935V14.683C54.6889 17.514 56.9954 19.809 59.8407 19.809C62.686 19.809 64.9927 17.514 64.9927 14.683V2.45935H71.3335V14.683C71.3335 20.9984 66.188 26.118 59.8407 26.118C53.4935 26.118 48.3481 20.9984 48.3481 14.683V2.45935H54.6889Z" fill="white"/>
<path fill-rule="evenodd" clip-rule="evenodd" d="M33.2889 13.5C33.2889 7.40242 38.2569 2.45935 44.3852 2.45935H45.9704V8.76831H44.3852C41.7588 8.76831 39.6296 10.8868 39.6296 13.5V14.2887C39.6296 20.8218 34.3068 26.118 27.7407 26.118H26.9482V19.809H27.7407C30.8049 19.809 33.2889 17.3375 33.2889 14.2887V13.5Z" fill="white"/>
<path d="M107 3.24794C107 4.55457 105.936 5.6138 104.622 5.6138C103.309 5.6138 102.245 4.55457 102.245 3.24794C102.245 1.94131 103.309 0.88208 104.622 0.88208C105.936 0.88208 107 1.94131 107 3.24794Z" fill="white"/>
<path d="M78.1416 26.1179L81.1674 13.5114L83.4169 21.0956C84.7579 25.619 91.1975 25.619 92.5392 21.0956L94.7881 13.5114L97.8138 26.1179H104.333L99.5752 6.29486C98.4438 1.58078 91.7674 1.40623 90.3884 6.05476L87.978 14.1835L85.5671 6.05476C84.1887 1.40626 77.5117 1.58075 76.3802 6.29486L71.6229 26.1179H78.1416Z" fill="white"/>
</g>
<defs>
<clipPath id="clip0_87_1972">
<rect width="107" height="25.2358" fill="white" transform="translate(0 0.88208)"/>
</clipPath>
</defs>
</svg>
