<svg width="24" height="24" viewBox="0 0 24 24" fill="none" xmlns="http://www.w3.org/2000/svg">
<g filter="url(#filter0_i_101_2124)">
<ellipse cx="9.09812" cy="9.75861" rx="5.53324" ry="5.44611" fill="url(#paint0_linear_101_2124)"/>
</g>
<path d="M14.5133 9.75861C14.5133 12.6994 12.0906 15.0867 9.09812 15.0867C6.10563 15.0867 3.68294 12.6994 3.68294 9.75861C3.68294 6.81777 6.10563 4.43056 9.09812 4.43056C12.0906 4.43056 14.5133 6.81777 14.5133 9.75861Z" stroke="white" stroke-opacity="0.1" stroke-width="0.236121"/>
<g filter="url(#filter1_b_101_2124)">
<path fill-rule="evenodd" clip-rule="evenodd" d="M17.1305 8.34771C16.3992 7.03384 14.5093 7.03384 13.778 8.34771L10.9044 13.5101C10.6231 14.0155 9.89624 14.0155 9.61495 13.5101L8.73765 11.934C7.89379 10.418 5.71316 10.418 4.8693 11.934L1.21921 18.4915C0.945448 18.9833 1.30105 19.5882 1.86394 19.5882H7.51712C7.51892 19.5882 7.52006 19.5902 7.51918 19.5917C7.51831 19.5933 7.51944 19.5952 7.52124 19.5952H22.1361C22.699 19.5952 23.0546 18.9903 22.7808 18.4985L17.1305 8.34771Z" fill="#377BFF" fill-opacity="0.02"/>
<path fill-rule="evenodd" clip-rule="evenodd" d="M17.1305 8.34771C16.3992 7.03384 14.5093 7.03384 13.778 8.34771L10.9044 13.5101C10.6231 14.0155 9.89624 14.0155 9.61495 13.5101L8.73765 11.934C7.89379 10.418 5.71316 10.418 4.8693 11.934L1.21921 18.4915C0.945448 18.9833 1.30105 19.5882 1.86394 19.5882H7.51712C7.51892 19.5882 7.52006 19.5902 7.51918 19.5917C7.51831 19.5933 7.51944 19.5952 7.52124 19.5952H22.1361C22.699 19.5952 23.0546 18.9903 22.7808 18.4985L17.1305 8.34771Z" fill="url(#paint1_linear_101_2124)"/>
</g>
<g filter="url(#filter2_b_101_2124)">
<path fill-rule="evenodd" clip-rule="evenodd" d="M16.7437 8.56303C16.1811 7.55236 14.7274 7.55236 14.1648 8.56304L11.2912 13.7254C10.8412 14.534 9.67818 14.534 9.22812 13.7254L8.35082 12.1494C7.67573 10.9366 5.93122 10.9366 5.25614 12.1494L1.60605 18.7068C1.49654 18.9035 1.63879 19.1455 1.86394 19.1455H7.51712C7.54473 19.1455 7.57151 19.1479 7.59732 19.1525H22.1361C22.3612 19.1525 22.5035 18.9105 22.394 18.7138L16.7437 8.56303ZM22.1361 19.5952C22.699 19.5952 23.0546 18.9903 22.7808 18.4985L17.1305 8.34771C16.3992 7.03384 14.5093 7.03384 13.778 8.34771L10.9044 13.5101C10.6231 14.0155 9.89624 14.0155 9.61495 13.5101L8.73765 11.934C7.89379 10.418 5.71316 10.418 4.8693 11.934L1.21921 18.4915C0.945448 18.9833 1.30105 19.5882 1.86394 19.5882H7.51712C7.51892 19.5882 7.52006 19.5902 7.51918 19.5917C7.51831 19.5933 7.51944 19.5952 7.52124 19.5952H22.1361Z" fill="url(#paint2_linear_101_2124)" fill-opacity="0.5"/>
</g>
<g filter="url(#filter3_i_101_2124)">
<path fill-rule="evenodd" clip-rule="evenodd" d="M14.2547 7.77964C14.0687 7.92894 13.9057 8.1183 13.778 8.34772L10.9044 13.5101C10.6231 14.0155 9.89626 14.0155 9.61498 13.5101L8.73767 11.9341C7.89382 10.418 5.71318 10.418 4.86932 11.934L4.44184 12.702C3.88685 11.8533 3.56488 10.843 3.56488 9.75861C3.56488 6.7508 6.0422 4.3125 9.09813 4.3125C11.4448 4.3125 13.4502 5.75028 14.2547 7.77964Z" fill="url(#paint3_linear_101_2124)"/>
</g>
<defs>
<filter id="filter0_i_101_2124" x="3.56488" y="4.3125" width="11.0665" height="10.8921" filterUnits="userSpaceOnUse" color-interpolation-filters="sRGB">
<feFlood flood-opacity="0" result="BackgroundImageFix"/>
<feBlend mode="normal" in="SourceGraphic" in2="BackgroundImageFix" result="shape"/>
<feColorMatrix in="SourceAlpha" type="matrix" values="0 0 0 0 0 0 0 0 0 0 0 0 0 0 0 0 0 0 127 0" result="hardAlpha"/>
<feOffset/>
<feGaussianBlur stdDeviation="0.708362"/>
<feComposite in2="hardAlpha" operator="arithmetic" k2="-1" k3="1"/>
<feColorMatrix type="matrix" values="0 0 0 0 0 0 0 0 0 0 0 0 0 0 0 0 0 0 0.25 0"/>
<feBlend mode="multiply" in2="shape" result="effect1_innerShadow_101_2124"/>
</filter>
<filter id="filter1_b_101_2124" x="-0.527844" y="5.70946" width="25.0557" height="15.5386" filterUnits="userSpaceOnUse" color-interpolation-filters="sRGB">
<feFlood flood-opacity="0" result="BackgroundImageFix"/>
<feGaussianBlur in="BackgroundImageFix" stdDeviation="0.826422"/>
<feComposite in2="SourceAlpha" operator="in" result="effect1_backgroundBlur_101_2124"/>
<feBlend mode="normal" in="SourceGraphic" in2="effect1_backgroundBlur_101_2124" result="shape"/>
</filter>
<filter id="filter2_b_101_2124" x="-0.527844" y="5.70946" width="25.0557" height="15.5386" filterUnits="userSpaceOnUse" color-interpolation-filters="sRGB">
<feFlood flood-opacity="0" result="BackgroundImageFix"/>
<feGaussianBlur in="BackgroundImageFix" stdDeviation="0.826422"/>
<feComposite in2="SourceAlpha" operator="in" result="effect1_backgroundBlur_101_2124"/>
<feBlend mode="normal" in="SourceGraphic" in2="effect1_backgroundBlur_101_2124" result="shape"/>
</filter>
<filter id="filter3_i_101_2124" x="3.56488" y="4.3125" width="10.6898" height="9.57666" filterUnits="userSpaceOnUse" color-interpolation-filters="sRGB">
<feFlood flood-opacity="0" result="BackgroundImageFix"/>
<feBlend mode="normal" in="SourceGraphic" in2="BackgroundImageFix" result="shape"/>
<feColorMatrix in="SourceAlpha" type="matrix" values="0 0 0 0 0 0 0 0 0 0 0 0 0 0 0 0 0 0 127 0" result="hardAlpha"/>
<feOffset/>
<feGaussianBlur stdDeviation="0.907136"/>
<feComposite in2="hardAlpha" operator="arithmetic" k2="-1" k3="1"/>
<feColorMatrix type="matrix" values="0 0 0 0 0 0 0 0 0 0 0 0 0 0 0 0 0 0 0.25 0"/>
<feBlend mode="multiply" in2="shape" result="effect1_innerShadow_101_2124"/>
</filter>
<linearGradient id="paint0_linear_101_2124" x1="9.09812" y1="4.3125" x2="9.09812" y2="15.2047" gradientUnits="userSpaceOnUse">
<stop stop-color="#37C3FF"/>
<stop offset="1" stop-color="#377BFF"/>
</linearGradient>
<linearGradient id="paint1_linear_101_2124" x1="23.4397" y1="20.1903" x2="16.3078" y2="7.92678" gradientUnits="userSpaceOnUse">
<stop stop-color="#373FFF" stop-opacity="0"/>
<stop offset="1" stop-color="white" stop-opacity="0.53"/>
</linearGradient>
<linearGradient id="paint2_linear_101_2124" x1="6.88833" y1="8.13992" x2="10.7382" y2="21.0717" gradientUnits="userSpaceOnUse">
<stop stop-color="white" stop-opacity="0.32"/>
<stop offset="1" stop-color="#373FFF" stop-opacity="0"/>
</linearGradient>
<linearGradient id="paint3_linear_101_2124" x1="8.90981" y1="4.3125" x2="8.90981" y2="13.8891" gradientUnits="userSpaceOnUse">
<stop stop-color="#37C3FF"/>
<stop offset="1" stop-color="#377BFF"/>
</linearGradient>
</defs>
</svg>
