<svg width="24" height="24" viewBox="0 0 24 24" fill="none" xmlns="http://www.w3.org/2000/svg">
<path d="M23.9833 19.7329C23.4231 16.8431 20.8795 14.6621 17.8246 14.6621C14.7698 14.6621 12.2262 16.8431 11.666 19.7329C11.5446 20.3566 12.0377 20.9349 12.6722 20.9349H22.9753C23.6116 20.9349 24.1029 20.3584 23.9814 19.7329H23.9833Z" fill="url(#paint0_linear_104_1113)"/>
<g filter="url(#filter0_b_104_1113)">
<path d="M17.8247 13.1883C19.5448 13.1883 20.9393 11.7938 20.9393 10.0736C20.9393 8.35346 19.5448 6.95898 17.8247 6.95898C16.1045 6.95898 14.71 8.35346 14.71 10.0736C14.71 11.7938 16.1045 13.1883 17.8247 13.1883Z" fill="url(#paint1_linear_104_1113)"/>
</g>
<path d="M23.9833 19.7329C23.4231 16.8431 20.8795 14.6621 17.8247 14.6621C14.7698 14.6621 12.2262 16.8431 11.666 19.7329C11.5446 20.3566 12.0377 20.9349 12.6722 20.9349H22.9753C23.6116 20.9349 24.1029 20.3584 23.9815 19.7329H23.9833Z" fill="url(#paint2_linear_104_1113)"/>
<path d="M17.8247 13.1883C19.5448 13.1883 20.9393 11.7938 20.9393 10.0736C20.9393 8.35346 19.5448 6.95898 17.8247 6.95898C16.1045 6.95898 14.71 8.35346 14.71 10.0736C14.71 11.7938 16.1045 13.1883 17.8247 13.1883Z" fill="url(#paint3_linear_104_1113)"/>
<path d="M7.74462 13.249C11.4286 13.249 14.5068 15.8405 15.257 19.299L15.2888 19.4624C15.4189 20.1315 14.8917 20.7562 14.2024 20.7562H1.28505C0.595708 20.7562 0.0685211 20.1315 0.198609 19.4624L0.198617 19.4624C0.886053 15.9225 4.00284 13.249 7.74462 13.249Z" fill="url(#paint4_linear_104_1113)" stroke="url(#paint5_linear_104_1113)" stroke-width="0.357319"/>
<g filter="url(#filter1_b_104_1113)">
<path d="M8.63869 11.1191C10.7368 10.624 12.0362 8.5217 11.541 6.42363C11.0458 4.32555 8.94353 3.02616 6.84544 3.52135C4.74736 4.01654 3.44796 6.11879 3.94315 8.21687C4.43834 10.3149 6.54061 11.6143 8.63869 11.1191Z" fill="url(#paint6_linear_104_1113)"/>
<path d="M11.3671 6.46467C11.8396 8.46671 10.5997 10.4727 8.59765 10.9453C6.5956 11.4178 4.58956 10.1779 4.11703 8.17583C3.64451 6.17379 4.88443 4.16775 6.88648 3.69523C8.88854 3.2227 10.8946 4.46262 11.3671 6.46467Z" stroke="url(#paint7_linear_104_1113)" stroke-width="0.357319"/>
</g>
<defs>
<filter id="filter0_b_104_1113" x="8.70999" y="0.958984" width="18.2293" height="18.2295" filterUnits="userSpaceOnUse" color-interpolation-filters="sRGB">
<feFlood flood-opacity="0" result="BackgroundImageFix"/>
<feGaussianBlur in="BackgroundImageFix" stdDeviation="3"/>
<feComposite in2="SourceAlpha" operator="in" result="effect1_backgroundBlur_104_1113"/>
<feBlend mode="normal" in="SourceGraphic" in2="effect1_backgroundBlur_104_1113" result="shape"/>
</filter>
<filter id="filter1_b_104_1113" x="0.62202" y="0.200145" width="14.2401" height="14.2403" filterUnits="userSpaceOnUse" color-interpolation-filters="sRGB">
<feFlood flood-opacity="0" result="BackgroundImageFix"/>
<feGaussianBlur in="BackgroundImageFix" stdDeviation="1.60794"/>
<feComposite in2="SourceAlpha" operator="in" result="effect1_backgroundBlur_104_1113"/>
<feBlend mode="normal" in="SourceGraphic" in2="effect1_backgroundBlur_104_1113" result="shape"/>
</filter>
<linearGradient id="paint0_linear_104_1113" x1="12.6844" y1="17.983" x2="24" y2="17.983" gradientUnits="userSpaceOnUse">
<stop stop-color="#E964FF"/>
<stop offset="1" stop-color="#8F37FF"/>
</linearGradient>
<linearGradient id="paint1_linear_104_1113" x1="15.2329" y1="10.2568" x2="20.9393" y2="10.2568" gradientUnits="userSpaceOnUse">
<stop stop-color="#E964FF"/>
<stop offset="1" stop-color="#8F37FF"/>
</linearGradient>
<linearGradient id="paint2_linear_104_1113" x1="12.6844" y1="17.983" x2="24" y2="17.983" gradientUnits="userSpaceOnUse">
<stop stop-color="#E964FF"/>
<stop offset="1" stop-color="#8F37FF"/>
</linearGradient>
<linearGradient id="paint3_linear_104_1113" x1="15.2329" y1="10.2568" x2="20.9393" y2="10.2568" gradientUnits="userSpaceOnUse">
<stop stop-color="#E964FF"/>
<stop offset="1" stop-color="#8F37FF"/>
</linearGradient>
<linearGradient id="paint4_linear_104_1113" x1="0.874354" y1="20.4909" x2="6.50729" y2="9.39816" gradientUnits="userSpaceOnUse">
<stop stop-color="white" stop-opacity="0.2"/>
<stop offset="1" stop-color="white" stop-opacity="0.49"/>
</linearGradient>
<linearGradient id="paint5_linear_104_1113" x1="1.09324" y1="13.6888" x2="6.19978" y2="24.4412" gradientUnits="userSpaceOnUse">
<stop stop-color="white"/>
<stop offset="1" stop-color="white" stop-opacity="0"/>
</linearGradient>
<linearGradient id="paint6_linear_104_1113" x1="5.16748" y1="11.4856" x2="10.3166" y2="3.15488" gradientUnits="userSpaceOnUse">
<stop stop-color="white" stop-opacity="0.2"/>
<stop offset="1" stop-color="white" stop-opacity="0.49"/>
</linearGradient>
<linearGradient id="paint7_linear_104_1113" x1="3.72388" y1="4.88894" x2="11.6777" y2="10.1807" gradientUnits="userSpaceOnUse">
<stop stop-color="white"/>
<stop offset="1" stop-color="white" stop-opacity="0"/>
</linearGradient>
</defs>
</svg>
