<svg width="106" height="27" viewBox="0 0 106 27" fill="none" xmlns="http://www.w3.org/2000/svg">
<g clip-path="url(#clip0_87_1995)">
<path d="M32.3363 18.2017H39.7887V15.9857H34.9851V7.63867H32.3363V18.2017Z" fill="white"/>
<path d="M44.204 16.7243C43.1415 16.7243 42.5878 15.8083 42.5878 14.4344C42.5878 13.0605 43.1415 12.1297 44.204 12.1297C45.2665 12.1297 45.8352 13.0605 45.8352 14.4344C45.8352 15.8083 45.2665 16.7243 44.204 16.7243ZM44.219 18.438C46.6882 18.438 48.3043 16.7095 48.3043 14.4344C48.3043 12.1593 46.6882 10.4308 44.219 10.4308C41.7648 10.4308 40.1186 12.1593 40.1186 14.4344C40.1186 16.7095 41.7648 18.438 44.219 18.438Z" fill="white"/>
<path d="M52.5783 20.8166C53.7157 20.8166 54.7183 20.5654 55.3917 19.9745C56.0053 19.4279 56.4093 18.6005 56.4093 17.463V10.6376H54.0748V11.4502H54.0449C53.5959 10.8149 52.9076 10.416 51.89 10.416C49.9894 10.416 48.6725 11.982 48.6725 14.198C48.6725 16.5175 50.2738 17.788 51.9947 17.788C52.9225 17.788 53.5061 17.4187 53.9551 16.9164H54.0149V17.6698C54.0149 18.5858 53.581 19.1176 52.5484 19.1176C51.7403 19.1176 51.3363 18.7778 51.2016 18.3789H48.8372C49.0766 19.9597 50.4683 20.8166 52.5783 20.8166ZM52.5634 16.0004C51.6505 16.0004 51.0519 15.2617 51.0519 14.1242C51.0519 12.9718 51.6505 12.2332 52.5634 12.2332C53.581 12.2332 54.1197 13.09 54.1197 14.1094C54.1197 15.1731 53.6259 16.0004 52.5634 16.0004Z" fill="white"/>
<path d="M61.2094 16.7243C60.1469 16.7243 59.5932 15.8083 59.5932 14.4344C59.5932 13.0605 60.1469 12.1297 61.2094 12.1297C62.2719 12.1297 62.8405 13.0605 62.8405 14.4344C62.8405 15.8083 62.2719 16.7243 61.2094 16.7243ZM61.2244 18.438C63.6935 18.438 65.3097 16.7095 65.3097 14.4344C65.3097 12.1593 63.6935 10.4308 61.2244 10.4308C58.7701 10.4308 57.124 12.1593 57.124 14.4344C57.124 16.7095 58.7701 18.438 61.2244 18.438Z" fill="white"/>
<path d="M66.0218 18.2017H68.461V10.6377H66.0218V18.2017ZM66.0218 9.58878H68.461V7.63867H66.0218V9.58878Z" fill="white"/>
<path d="M69.5198 20.6984H71.959V17.4187H71.9889C72.4678 18.0539 73.1712 18.438 74.1588 18.438C76.1641 18.438 77.496 16.872 77.496 14.4196C77.496 12.1445 76.2539 10.416 74.2187 10.416C73.1712 10.416 72.4229 10.874 71.8992 11.5536H71.8543V10.6376H69.5198V20.6984ZM73.5303 16.5766C72.4828 16.5766 71.8842 15.7345 71.8842 14.5083C71.8842 13.2821 72.4229 12.3513 73.4854 12.3513C74.5329 12.3513 75.0268 13.2082 75.0268 14.5083C75.0268 15.7936 74.4581 16.5766 73.5303 16.5766Z" fill="white"/>
<path d="M81.4672 18.438C83.4725 18.438 84.954 17.5812 84.954 15.9265C84.954 13.9912 83.3678 13.6514 82.0209 13.4298C81.0482 13.2525 80.1803 13.1787 80.1803 12.6468C80.1803 12.1741 80.6442 11.9525 81.2428 11.9525C81.9162 11.9525 82.3801 12.1593 82.4699 12.8389H84.7146C84.5949 11.3467 83.4276 10.416 81.2577 10.416C79.447 10.416 77.9505 11.2433 77.9505 12.8389C77.9505 14.6117 79.3722 14.9663 80.704 15.1879C81.7216 15.3651 82.6494 15.439 82.6494 16.1186C82.6494 16.6061 82.1855 16.872 81.4523 16.872C80.6442 16.872 80.1354 16.5027 80.0456 15.7493H77.741C77.8158 17.4187 79.2225 18.438 81.4672 18.438Z" fill="white"/>
<path d="M88.2674 18.4233C89.3299 18.4233 90.0033 18.0097 90.557 17.271H90.6019V18.2017H92.9364V10.6377H90.4972V14.8629C90.4972 15.7641 89.9884 16.3846 89.1504 16.3846C88.3722 16.3846 87.9981 15.9266 87.9981 15.0993V10.6377H85.5738V15.6016C85.5738 17.2858 86.5016 18.4233 88.2674 18.4233Z" fill="white"/>
<path d="M93.9971 18.2017H96.4363V13.9617C96.4363 13.0605 96.8853 12.4252 97.6485 12.4252C98.3817 12.4252 98.7259 12.898 98.7259 13.7105V18.2017H101.165V13.9617C101.165 13.0605 101.599 12.4252 102.377 12.4252C103.111 12.4252 103.455 12.898 103.455 13.7105V18.2017H105.894V13.2821C105.894 11.5831 105.026 10.416 103.29 10.416C102.302 10.416 101.479 10.8297 100.881 11.7456H100.851C100.462 10.9331 99.6986 10.416 98.696 10.416C97.5886 10.416 96.8553 10.9331 96.3765 11.7161H96.3316V10.6376H93.9971V18.2017Z" fill="white"/>
<path fill-rule="evenodd" clip-rule="evenodd" d="M12.8972 25.5885C19.7845 25.5885 25.3678 20.0765 25.3678 13.2772C25.3678 6.47789 19.7845 0.965942 12.8972 0.965942C6.00984 0.965942 0.426575 6.47789 0.426575 13.2772C0.426575 20.0765 6.00984 25.5885 12.8972 25.5885ZM16.7876 6.70105C16.9769 6.03698 16.3242 5.6443 15.728 6.06361L7.40581 11.9165C6.75928 12.3713 6.86097 13.2772 7.55858 13.2772H9.75003V13.2604H14.0211L10.541 14.4727L9.00679 19.8534C8.81742 20.5174 9.47013 20.9101 10.0664 20.4908L18.3885 14.6379C19.0351 14.1832 18.9333 13.2772 18.2358 13.2772H14.9125L16.7876 6.70105Z" fill="white"/>
</g>
<defs>
<clipPath id="clip0_87_1995">
<rect width="106" height="25.2381" fill="white" transform="translate(0 0.880981)"/>
</clipPath>
</defs>
</svg>
