<svg width="84" height="33" viewBox="0 0 84 33" fill="none" xmlns="http://www.w3.org/2000/svg">
<g clip-path="url(#clip0_87_1979)">
<path d="M38.5088 28.6905H40.6963V20.4391H38.5088V28.6905ZM38.5088 19.1523H40.6963V17.1899H38.5088V19.1523Z" fill="white"/>
<path d="M42.1058 31.3927H44.2934V27.7576H44.3256C44.792 28.4653 45.548 28.9318 46.7061 28.9318C48.8293 28.9318 50.2769 27.2429 50.2769 24.5728C50.2769 21.9992 48.8775 20.2139 46.69 20.2139C45.5641 20.2139 44.792 20.7447 44.2612 21.4684H44.213V20.4391H42.1058V31.3927ZM46.2397 27.1142C44.9368 27.1142 44.2451 26.1331 44.2451 24.6371C44.2451 23.1574 44.792 21.9831 46.1592 21.9831C47.5103 21.9831 48.0572 23.0769 48.0572 24.6371C48.0572 26.1974 47.3495 27.1142 46.2397 27.1142Z" fill="white"/>
<path d="M54.6405 28.9318C56.6993 28.9318 58.1148 27.9345 58.1148 26.2778C58.1148 24.3476 56.5868 23.9616 55.2035 23.6721C54.0293 23.4308 52.9355 23.3664 52.9355 22.6587C52.9355 22.0636 53.4985 21.7419 54.351 21.7419C55.2839 21.7419 55.8469 22.0636 55.9434 22.9483H57.9218C57.7609 21.2915 56.5546 20.2139 54.3832 20.2139C52.5013 20.2139 51.0214 21.0663 51.0214 22.8517C51.0214 24.6532 52.4691 25.0554 53.9489 25.3449C55.0748 25.57 56.1203 25.6505 56.1203 26.4387C56.1203 27.0177 55.5734 27.3876 54.6083 27.3876C53.6272 27.3876 52.9516 26.9695 52.8069 26.0204H50.7802C50.9089 27.7737 52.2439 28.9318 54.6405 28.9318Z" fill="white"/>
<path d="M66.4202 28.6905V20.4391H64.2327V25.2001C64.2327 26.2939 63.6054 27.066 62.5759 27.066C61.6431 27.066 61.2087 26.5352 61.2087 25.57V20.4391H59.0373V25.94C59.0373 27.7415 60.0667 28.9157 61.9004 28.9157C63.0585 28.9157 63.7019 28.4814 64.2649 27.7254H64.3131V28.6905H66.4202Z" fill="white"/>
<path d="M67.8351 28.6905H70.0227V23.8972C70.0227 22.8035 70.6179 22.0958 71.5025 22.0958C72.3067 22.0958 72.7732 22.5783 72.7732 23.5112V28.6905H74.9607V23.8972C74.9607 22.8035 75.5237 22.0958 76.4405 22.0958C77.2447 22.0958 77.7112 22.5783 77.7112 23.5112V28.6905H79.8987V23.1413C79.8987 21.3398 78.9175 20.2139 77.1804 20.2139C76.1349 20.2139 75.2663 20.7607 74.7034 21.6615H74.6712C74.2691 20.7929 73.4327 20.2139 72.3871 20.2139C71.2451 20.2139 70.4409 20.7929 69.9905 21.5489H69.9423V20.4391H67.8351V28.6905Z" fill="white"/>
<path d="M38.541 14.5576H40.7285V3.05701H38.541V14.5576Z" fill="white"/>
<path d="M46.0773 14.7988C48.6348 14.7988 50.388 12.9008 50.388 10.4399C50.388 7.97892 48.6348 6.08093 46.0773 6.08093C43.5198 6.08093 41.7665 7.97892 41.7665 10.4399C41.7665 12.9008 43.5198 14.7988 46.0773 14.7988ZM46.0773 13.126C44.7261 13.126 43.9863 12.0484 43.9863 10.4399C43.9863 8.8314 44.7261 7.73766 46.0773 7.73766C47.4123 7.73766 48.1683 8.8314 48.1683 10.4399C48.1683 12.0484 47.4123 13.126 46.0773 13.126Z" fill="white"/>
<path d="M55.04 17.3724C56.2624 17.3724 57.324 17.0829 58.0156 16.4395C58.6268 15.8765 58.9968 15.0884 58.9968 13.9303V6.30612H56.8897V7.17469H56.8576C56.3589 6.48304 55.6029 6.08093 54.5735 6.08093C52.4825 6.08093 51.0027 7.65724 51.0027 10.1182C51.0027 12.6113 52.8042 14.0589 54.6379 14.0589C55.6834 14.0589 56.3107 13.6408 56.7932 13.0939H56.8415V13.9946C56.8415 15.1205 56.2464 15.7156 55.0078 15.7156C53.9944 15.7156 53.528 15.3136 53.3511 14.7988H51.1796C51.4048 16.4073 52.7881 17.3724 55.04 17.3724ZM55.0078 12.3057C53.8819 12.3057 53.142 11.4854 53.142 10.086C53.142 8.70276 53.8819 7.83416 54.9917 7.83416C56.3107 7.83416 56.954 8.86356 56.954 10.07C56.954 11.2924 56.3911 12.3057 55.0078 12.3057Z" fill="white"/>
<path d="M64.314 14.7988C66.8715 14.7988 68.6247 12.9008 68.6247 10.4399C68.6247 7.97892 66.8715 6.08093 64.314 6.08093C61.7566 6.08093 60.0033 7.97892 60.0033 10.4399C60.0033 12.9008 61.7566 14.7988 64.314 14.7988ZM64.314 13.126C62.9629 13.126 62.223 12.0484 62.223 10.4399C62.223 8.8314 62.9629 7.73766 64.314 7.73766C65.6491 7.73766 66.4051 8.8314 66.4051 10.4399C66.4051 12.0484 65.6491 13.126 64.314 13.126Z" fill="white"/>
<path d="M70.5423 11.405H80V9.52307H70.5423V11.405Z" fill="white"/>
<path d="M80.6936 19.0373C80.6936 18.6671 80.9936 18.3671 81.364 18.3671H82.704C83.0744 18.3671 83.3744 18.6671 83.3744 19.0373C83.3744 19.4074 83.0744 19.7075 82.704 19.7075H81.364C80.9936 19.7075 80.6936 19.4074 80.6936 19.0373Z" fill="white"/>
<path fill-rule="evenodd" clip-rule="evenodd" d="M16.4173 0.5C25.2539 0.5 32.4173 7.66344 32.4173 16.5C32.4173 25.3366 25.2539 32.5 16.4173 32.5C7.58074 32.5 0.417297 25.3366 0.417297 16.5C0.417297 7.66344 7.58074 0.5 16.4173 0.5ZM15.839 1.69727C14.0137 1.95415 12.2756 3.42086 10.9264 5.87392C10.5351 6.58546 10.1819 7.37157 9.87417 8.22035C11.7087 7.75934 13.724 7.48754 15.839 7.4455V1.69727ZM8.52193 8.60464C8.90457 7.40366 9.37273 6.29872 9.91297 5.31652C10.5818 4.10047 11.3755 3.05036 12.2699 2.24382C7.40673 3.65618 3.57348 7.48943 2.16112 12.3526C2.96765 11.4582 4.01777 10.6645 5.23382 9.99568C6.21602 9.45544 7.32096 8.98728 8.52193 8.60464ZM8.13761 9.95688C7.67663 11.7914 7.40484 13.8067 7.3628 15.9217H1.61456C1.87145 14.0963 3.33816 12.3582 5.79122 11.0091C6.50276 10.6178 7.28887 10.2646 8.13761 9.95688ZM8.51969 15.9217C8.56745 13.6136 8.89969 11.4467 9.44945 9.53216C11.364 8.9824 13.531 8.65008 15.839 8.60232V11.1006C14.9779 13.305 13.2218 15.061 11.0174 15.9217H8.51969ZM7.3628 17.0783H1.61456C1.87145 18.9037 3.33816 20.6417 5.79122 21.9909C6.50276 22.3822 7.28887 22.7354 8.13761 23.0431C7.67663 21.2086 7.40484 19.1933 7.3628 17.0783ZM9.44945 23.4678C8.89969 21.5533 8.56745 19.3864 8.51969 17.0783H11.0174C13.2218 17.939 14.978 19.695 15.839 21.8994V24.3977C13.531 24.3499 11.364 24.0176 9.44945 23.4678ZM8.52193 24.3954C7.32096 24.0127 6.21602 23.5446 5.23382 23.0043C4.01777 22.3355 2.96765 21.5418 2.16112 20.6474C3.57348 25.5106 7.40673 29.3438 12.2699 30.7562C11.3755 29.9496 10.5818 28.8995 9.91297 27.6834C9.37273 26.7013 8.90457 25.5963 8.52193 24.3954ZM15.839 31.3027C14.0137 31.0458 12.2756 29.5791 10.9264 27.1261C10.5351 26.4146 10.1819 25.6284 9.87417 24.7797C11.7087 25.2406 13.724 25.5125 15.839 25.5545V31.3027ZM20.5647 30.7562C21.4591 29.9496 22.2528 28.8995 22.9217 27.6834C23.4619 26.7013 23.93 25.5963 24.3127 24.3954C25.5136 24.0127 26.6186 23.5446 27.6008 23.0043C28.8168 22.3355 29.867 21.5418 30.6735 20.6474C29.2611 25.5106 25.4279 29.3438 20.5647 30.7562ZM22.9604 24.7797C22.6527 25.6284 22.2995 26.4146 21.9082 27.1261C20.5591 29.5791 18.821 31.0458 16.9956 31.3027V25.5545C19.1106 25.5125 21.1259 25.2406 22.9604 24.7797ZM24.697 23.0431C25.5457 22.7354 26.3319 22.3822 27.0434 21.9909C29.4964 20.6417 30.9631 18.9037 31.22 17.0783H25.4718C25.4298 19.1933 25.1579 21.2086 24.697 23.0431ZM24.315 17.0783C24.2672 19.3864 23.9349 21.5533 23.3851 23.4678C21.4706 24.0176 19.3037 24.3499 16.9956 24.3977V21.9012C17.8563 19.6961 19.6129 17.9393 21.8179 17.0783H24.315ZM25.4718 15.9217H31.22C30.9631 14.0963 29.4964 12.3582 27.0434 11.0091C26.3319 10.6178 25.5457 10.2646 24.697 9.95688C25.1579 11.7914 25.4298 13.8067 25.4718 15.9217ZM23.3851 9.53216C23.9349 11.4467 24.2672 13.6136 24.315 15.9217H21.8179C19.6129 15.0607 17.8563 13.3039 16.9956 11.0988V8.60232C19.3037 8.65008 21.4706 8.9824 23.3851 9.53216ZM24.3127 8.60464C25.5136 8.98728 26.6186 9.45544 27.6008 9.99568C28.8168 10.6645 29.867 11.4582 30.6735 12.3526C29.2611 7.48943 25.4279 3.65618 20.5647 2.24382C21.4591 3.05036 22.2528 4.10047 22.9217 5.31652C23.4619 6.29872 23.93 7.40366 24.3127 8.60464ZM16.9956 1.69727C18.821 1.95415 20.5591 3.42086 21.9082 5.87392C22.2995 6.58547 22.6527 7.37157 22.9604 8.22035C21.1259 7.75934 19.1106 7.48754 16.9956 7.4455V1.69727Z" fill="white"/>
</g>
<defs>
<clipPath id="clip0_87_1979">
<rect width="84" height="32" fill="white" transform="translate(0 0.5)"/>
</clipPath>
</defs>
</svg>
