<svg width="24" height="24" viewBox="0 0 24 24" fill="none" xmlns="http://www.w3.org/2000/svg">
<g filter="url(#filter0_b_99_1097)">
<path d="M21.1092 23.9999H11.9088C10.3107 23.9999 9.01578 22.682 9.01578 21.0556V8.66801C9.01578 7.9875 9.24758 7.32967 9.66882 6.8034L14.2691 1.08031C15.4258 -0.360103 17.59 -0.360103 18.7467 1.08031L23.347 6.8034C23.7704 7.32967 24 7.9875 24 8.66801V21.0556C24 22.682 22.7051 23.9999 21.107 23.9999H21.1092Z" fill="url(#paint0_linear_99_1097)"/>
</g>
<path d="M20.1508 9.99937L19.4019 2.64532C19.2125 0.79433 17.4071 -0.416979 15.662 0.138771L8.7282 2.34135C8.09076 2.54324 7.54248 2.96516 7.17473 3.53225L0.477185 13.876C-0.400961 15.2348 -0.0332095 17.0608 1.30184 17.9545L8.98451 23.106C10.3196 23.9997 12.1137 23.6255 12.9919 22.2667L19.6872 11.9229C20.055 11.3558 20.2177 10.6753 20.1486 9.99937H20.1508ZM18.1048 4.35793C17.4718 5.3356 16.1813 5.60554 15.2207 4.96132C14.2601 4.3171 13.9949 3.00372 14.6278 2.02605C15.2608 1.04838 16.5513 0.778452 17.5119 1.42267C18.4725 2.06689 18.7377 3.38027 18.1048 4.35793Z" fill="url(#paint1_linear_99_1097)"/>
<path fill-rule="evenodd" clip-rule="evenodd" d="M20.1486 9.99959C20.1494 10.0071 20.1501 10.0146 20.1508 10.022C20.1643 10.1651 20.1675 10.3084 20.1605 10.4507C20.135 10.973 19.973 11.4822 19.6872 11.9229L12.9919 22.2667C12.1137 23.6255 10.3196 23.9997 8.98451 23.106L1.30184 17.9545C-0.0332095 17.0608 -0.400961 15.2348 0.477185 13.876L7.17473 3.53225C7.54248 2.96516 8.09076 2.54324 8.7282 2.34135L15.662 0.138771C17.4071 -0.416979 19.2125 0.79433 19.4019 2.64532L20.1508 9.99914L20.1486 9.99959C20.1486 9.99967 20.1486 9.99952 20.1486 9.99959ZM19.6512 9.54805L18.9529 2.69127C18.9529 2.6912 18.953 2.69135 18.9529 2.69127C18.7915 1.11548 17.2617 0.102995 15.7989 0.568813L8.86484 2.7715C8.32934 2.94109 7.86557 3.29655 7.55357 3.77755M7.55357 3.77755L0.856234 14.121C0.10987 15.2758 0.425628 16.8249 1.55291 17.5795L9.23558 22.731C10.3592 23.4832 11.8703 23.1707 12.6128 22.0217L19.3083 11.6777C19.6196 11.1977 19.7583 10.6199 19.6996 10.0453L19.6488 9.54805H19.6512M18.4836 4.60322C17.7152 5.79 16.1418 6.12246 14.9693 5.33616C13.8016 4.55307 13.4837 2.96283 14.249 1.78077C15.0173 0.593988 16.5908 0.261533 17.7633 1.04783C18.931 1.83092 19.2489 3.42116 18.4836 4.60322ZM15.2207 4.96132C16.1813 5.60554 17.4718 5.3356 18.1048 4.35793C18.7377 3.38027 18.4725 2.06689 17.5119 1.42267C16.5513 0.778452 15.2608 1.04838 14.6278 2.02605C13.9949 3.00372 14.2601 4.3171 15.2207 4.96132Z" fill="url(#paint2_linear_99_1097)"/>
<defs>
<filter id="filter0_b_99_1097" x="3.01578" y="-6" width="26.9842" height="36" filterUnits="userSpaceOnUse" color-interpolation-filters="sRGB">
<feFlood flood-opacity="0" result="BackgroundImageFix"/>
<feGaussianBlur in="BackgroundImageFix" stdDeviation="3"/>
<feComposite in2="SourceAlpha" operator="in" result="effect1_backgroundBlur_99_1097"/>
<feBlend mode="normal" in="SourceGraphic" in2="effect1_backgroundBlur_99_1097" result="shape"/>
</filter>
<linearGradient id="paint0_linear_99_1097" x1="10.2736" y1="12.7058" x2="24" y2="12.7058" gradientUnits="userSpaceOnUse">
<stop stop-color="#E964FF"/>
<stop offset="1" stop-color="#8F37FF"/>
</linearGradient>
<linearGradient id="paint1_linear_99_1097" x1="1.13838" y1="22.2599" x2="21.8088" y2="4.59044" gradientUnits="userSpaceOnUse">
<stop stop-color="white" stop-opacity="0.2"/>
<stop offset="1" stop-color="white" stop-opacity="0.49"/>
</linearGradient>
<linearGradient id="paint2_linear_99_1097" x1="1.13838" y1="22.2599" x2="21.8088" y2="4.59044" gradientUnits="userSpaceOnUse">
<stop stop-color="white" stop-opacity="0.2"/>
<stop offset="1" stop-color="white" stop-opacity="0.49"/>
</linearGradient>
</defs>
</svg>
